<svg width="72" height="25" viewBox="0 0 72 25" fill="none" xmlns="http://www.w3.org/2000/svg">
<path fill-rule="evenodd" clip-rule="evenodd" d="M0.321429 0.413909C0.0761143 0.687245 0 3.09987 0 10.6166V20.4612H2.57143H5.14286V19.4526C5.14286 18.8979 5.25857 18.444 5.4 18.444C5.54143 18.444 5.65714 18.27 5.65714 18.0574C5.65714 17.5554 7.3224 15.9224 7.83437 15.9224C8.05115 15.9224 8.22857 15.809 8.22857 15.6703C8.22857 15.5094 10.3713 15.4181 14.1429 15.4181C17.9144 15.4181 20.0571 15.5094 20.0571 15.6703C20.0571 15.809 19.5326 15.9224 18.8915 15.9224C17.9041 15.9224 17.5893 16.0563 16.8344 16.7966L15.9429 17.6706V20.2091V22.7475L16.8344 23.6215C17.3823 24.1588 17.9766 24.4957 18.3772 24.4957C18.7354 24.4957 19.0286 24.6092 19.0286 24.7478C19.0286 24.888 19.7144 25 20.5714 25C21.4285 25 22.1143 24.888 22.1143 24.7478C22.1143 24.6092 22.2961 24.4957 22.5183 24.4957C23.014 24.4957 23.6571 23.8963 23.6571 23.4346C23.6571 23.2473 23.8886 22.9306 24.1714 22.7306C24.4543 22.5306 24.6857 22.1653 24.6857 21.9184C24.6857 21.6718 24.8014 21.4698 24.9429 21.4698C25.0843 21.4698 25.2 21.016 25.2 20.4612C25.2 19.9065 25.0843 19.4526 24.9429 19.4526C24.8014 19.4526 24.6857 19.0504 24.6857 18.5587C24.6857 17.6028 23.77 16.4267 23.0259 16.4267C22.8073 16.4267 22.6286 16.3133 22.6286 16.1746C22.6286 16.0359 22.2814 15.9224 21.8571 15.9224C21.4329 15.9224 21.0857 15.809 21.0857 15.6703C21.0857 15.5316 21.6103 15.4181 22.2513 15.4181C23.2388 15.4181 23.5535 15.552 24.3085 16.2923C24.8565 16.8297 25.2 17.4124 25.2 17.8053C25.2 18.1565 25.3157 18.444 25.4571 18.444C25.5986 18.444 25.7143 18.8979 25.7143 19.4526V20.4612H41.6571C57.4285 20.4612 57.6 20.4557 57.6 19.9569C57.6 19.6795 57.7157 19.4526 57.8571 19.4526C57.9986 19.4526 58.1143 19.1122 58.1143 18.6961C58.1143 18.2801 58.23 17.9397 58.3714 17.9397C58.5129 17.9397 58.6286 17.7657 58.6286 17.5531C58.6286 16.9177 60.3386 15.4181 61.063 15.4181C61.4212 15.4181 61.7143 15.3047 61.7143 15.166C61.7143 15.0273 62.1771 14.9138 62.7429 14.9138C63.3086 14.9138 63.7714 15.0273 63.7714 15.166C63.7714 15.3047 64.2343 15.4181 64.8 15.4181C65.3657 15.4181 65.8286 15.5316 65.8286 15.6703C65.8286 15.809 66.0073 15.9224 66.2259 15.9224C66.7404 15.9224 67.8857 17.0455 67.8857 17.5501C67.8857 17.7644 68.0014 17.9397 68.1429 17.9397C68.2843 17.9397 68.4 18.1666 68.4 18.444C68.4 18.7213 68.5157 18.9483 68.6572 18.9483C68.7986 18.9483 68.9143 19.1266 68.9143 19.3444C68.9143 20.054 69.6112 20.4612 70.8246 20.4612H72V15.166V9.87072H70.4571H68.9143V7.85349C68.9143 6.67668 68.8071 5.83625 68.6572 5.83625C68.5121 5.83625 68.4 5.1219 68.4 4.19724C68.4 2.60489 68.4188 2.55824 69.0611 2.55824C70.2861 2.55824 70.9249 1.21577 70.0897 0.397026C69.5389 -0.143341 0.806657 -0.12671 0.321429 0.413909ZM11.8286 3.06255C11.8286 3.33992 11.9443 3.56686 12.0857 3.56686C12.2271 3.56686 12.3429 3.964 12.3429 4.4494C12.3429 4.9348 12.4586 5.33194 12.6 5.33194C12.743 5.33194 12.8571 6.00444 12.8571 6.84487C12.8571 7.6853 12.9713 8.35779 13.1143 8.35779C13.2557 8.35779 13.3714 8.6982 13.3714 9.11426V9.87072H8.48571H3.6V6.21448V2.55824H7.71429C11.6571 2.55824 11.8286 2.57917 11.8286 3.06255ZM22.6286 3.18863C22.6286 3.53534 22.7443 3.81901 22.8857 3.81901C23.0287 3.81901 23.1429 4.49151 23.1429 5.33194C23.1429 6.17237 23.257 6.84487 23.4 6.84487C23.543 6.84487 23.6571 7.51736 23.6571 8.35779V9.87072H19.5429H15.4286V8.8621C15.4286 8.30736 15.3129 7.85349 15.1714 7.85349C15.0202 7.85349 14.9143 6.97094 14.9143 5.71017C14.9143 4.4494 14.8083 3.56686 14.6571 3.56686C14.5157 3.56686 14.4 3.33992 14.4 3.06255C14.4 2.57917 14.5715 2.55824 18.5143 2.55824H22.6286V3.18863ZM33.4286 3.3147C33.4286 3.73076 33.5443 4.07117 33.6857 4.07117C33.8271 4.07117 33.9429 4.69525 33.9429 5.45802C33.9429 6.22079 34.0586 6.84487 34.2 6.84487C34.343 6.84487 34.4571 7.51736 34.4571 8.35779V9.87072H30.4532C27.3258 9.87072 26.3685 9.79179 26.0817 9.51039C25.8377 9.27135 25.7143 8.59305 25.7143 7.49315C25.7143 6.55665 25.6024 5.83625 25.4571 5.83625C25.3121 5.83625 25.2 5.1219 25.2 4.19724V2.55824H29.3143H33.4286V3.3147ZM44.3754 2.91857C44.5973 3.13593 44.7429 3.78548 44.7429 4.55758C44.7429 5.26084 44.8586 5.83625 45 5.83625C45.1414 5.83625 45.2571 6.29013 45.2571 6.84487C45.2571 7.39961 45.3729 7.85349 45.5143 7.85349C45.6557 7.85349 45.7714 8.30736 45.7714 8.8621V9.87072H41.5103C38.16 9.87072 37.1705 9.79381 36.8817 9.51039C36.6377 9.27135 36.5143 8.59305 36.5143 7.49315C36.5143 6.55665 36.4024 5.83625 36.2571 5.83625C36.1121 5.83625 36 5.1219 36 4.19724V2.55824H40.004C43.1313 2.55824 44.0887 2.63717 44.3754 2.91857ZM55.0286 3.06255C55.0286 3.33992 55.1443 3.56686 55.2857 3.56686C55.4271 3.56686 55.5429 4.07747 55.5429 4.70155C55.5429 5.32564 55.6586 5.83625 55.8 5.83625C55.9499 5.83625 56.0571 6.67668 56.0571 7.85349V9.87072H51.9429H47.8286V8.8621C47.8286 8.30736 47.7129 7.85349 47.5714 7.85349C47.4215 7.85349 47.3143 7.01305 47.3143 5.83625C47.3143 4.65944 47.2071 3.81901 47.0571 3.81901C46.9157 3.81901 46.8 3.53534 46.8 3.18863V2.55824H50.9143C54.8571 2.55824 55.0286 2.57917 55.0286 3.06255ZM66.3429 3.69293C66.3429 4.31702 66.4586 4.82763 66.6 4.82763C66.7497 4.82763 66.8571 5.66125 66.8571 6.82394C66.8571 8.1891 66.958 8.85303 67.1763 8.92439C67.4085 9.00029 67.3784 9.14351 67.0662 9.44963C66.7018 9.80693 66.0299 9.87072 62.6325 9.87072H58.6286V8.60995C58.6286 7.91652 58.5129 7.34918 58.3714 7.34918C58.2228 7.34918 58.1143 6.5506 58.1143 5.45802C58.1143 4.36543 58.0058 3.56686 57.8571 3.56686C57.7157 3.56686 57.6 3.33992 57.6 3.06255C57.6 2.57791 57.7715 2.55824 61.9714 2.55824H66.3429V3.69293ZM61.7143 15.6703C61.7143 15.809 61.3671 15.9224 60.9429 15.9224C60.3748 15.9224 60.1714 16.0407 60.1714 16.371C60.1714 16.6179 59.94 16.9832 59.6571 17.1832C59.3743 17.3832 59.1429 17.7485 59.1429 17.9954C59.1429 18.242 59.0271 18.444 58.8857 18.444C58.7358 18.444 58.6286 19.2844 58.6286 20.4612C58.6286 21.638 58.7358 22.4785 58.8857 22.4785C59.0271 22.4785 59.1429 22.6567 59.1429 22.8746C59.1429 23.3842 59.7621 23.9914 60.2817 23.9914C60.5039 23.9914 60.6857 24.1049 60.6857 24.2435C60.6857 24.3822 60.9171 24.4957 61.2 24.4957C61.4829 24.4957 61.7143 24.6092 61.7143 24.7478C61.7143 24.8936 62.5315 25 63.6513 25C65.519 25 65.6206 24.9685 66.4799 24.1258C66.9703 23.6452 67.3714 23.0778 67.3714 22.865C67.3714 22.6524 67.4871 22.4785 67.6286 22.4785C67.77 22.4785 67.8857 22.138 67.8857 21.722C67.8857 21.3059 68.0014 20.9655 68.1429 20.9655C68.2843 20.9655 68.4 20.6251 68.4 20.2091C68.4 19.793 68.2843 19.4526 68.1429 19.4526C68.0014 19.4526 67.8857 19.2257 67.8857 18.9483C67.8857 18.6709 67.77 18.444 67.6286 18.444C67.4871 18.444 67.3714 18.27 67.3714 18.0574C67.3714 17.8446 66.9703 17.2773 66.4799 16.7966C65.7993 16.1289 65.374 15.9224 64.6799 15.9224C64.1803 15.9224 63.7714 15.809 63.7714 15.6703C63.7714 15.5316 63.3086 15.4181 62.7429 15.4181C62.1771 15.4181 61.7143 15.5316 61.7143 15.6703ZM10.2857 16.1746C10.2857 16.3133 9.82286 16.4267 9.25714 16.4267C8.69143 16.4267 8.22857 16.5402 8.22857 16.6789C8.22857 16.8176 8.04677 16.9311 7.8246 16.9311C7.60217 16.9311 7.25503 17.0932 7.05317 17.2914C6.85105 17.4893 6.68571 17.8297 6.68571 18.0478C6.68571 18.2657 6.57 18.444 6.42857 18.444C6.28714 18.444 6.17143 18.8979 6.17143 19.4526C6.17143 20.0073 6.05571 20.4612 5.91429 20.4612C5.77286 20.4612 5.65714 20.6882 5.65714 20.9655C5.65714 21.2429 5.77286 21.4698 5.91429 21.4698C6.05571 21.4698 6.17143 21.6968 6.17143 21.9741C6.17143 22.2515 6.28714 22.4785 6.42857 22.4785C6.57 22.4785 6.68571 22.6567 6.68571 22.8746C6.68571 23.3842 7.30491 23.9914 7.8246 23.9914C8.04677 23.9914 8.22857 24.1049 8.22857 24.2435C8.22857 24.3822 8.57572 24.4957 9 24.4957C9.42429 24.4957 9.77143 24.6092 9.77143 24.7478C9.77143 24.8865 10.1186 25 10.5429 25C10.9671 25 11.3143 24.8865 11.3143 24.7478C11.3143 24.6092 11.7224 24.4957 12.221 24.4957C12.952 24.4957 13.3509 24.2771 14.2781 23.3676C15.4057 22.2621 15.4286 22.2066 15.4286 20.5938C15.4286 19.6649 15.3167 18.9483 15.1714 18.9483C15.03 18.9483 14.9143 18.6596 14.9143 18.3066C14.9143 17.4802 13.8399 16.4267 12.9973 16.4267C12.6373 16.4267 12.3429 16.3133 12.3429 16.1746C12.3429 16.0359 11.88 15.9224 11.3143 15.9224C10.7486 15.9224 10.2857 16.0359 10.2857 16.1746ZM21.483 19.063C21.8301 19.4034 22.1143 19.9221 22.1143 20.2156C22.1143 20.8354 21.5491 21.4698 20.997 21.4698C20.7864 21.4698 20.5467 21.6118 20.4642 21.785C20.3444 22.0372 20.2842 22.0372 20.1644 21.785C20.0818 21.6118 19.8422 21.4698 19.6316 21.4698C19.4212 21.4698 19.0836 21.3077 18.8817 21.1095C18.4603 20.6965 18.3896 19.9569 18.7714 19.9569C18.9129 19.9569 19.0286 19.73 19.0286 19.4526C19.0286 19.1165 19.2001 18.9483 19.5429 18.9483C19.8257 18.9483 20.0571 18.8348 20.0571 18.6961C20.0571 18.2339 20.844 18.4364 21.483 19.063ZM11.9754 19.3086C12.1775 19.5066 12.3429 20.0252 12.3429 20.4612C12.3429 20.8972 12.1775 21.4159 11.9754 21.6138C11.7735 21.812 11.2446 21.9741 10.8 21.9741C10.3554 21.9741 9.82645 21.812 9.6246 21.6138C9.17151 21.1698 9.14426 19.8094 9.57857 19.3255C9.99771 18.8585 11.5059 18.8479 11.9754 19.3086ZM64.4325 19.3086C64.6347 19.5066 64.8 20.0252 64.8 20.4612C64.8 21.9794 63.4744 22.4623 62.3456 21.3551C61.2159 20.2476 61.6755 18.975 63.2111 18.9579C63.6809 18.9526 64.2307 19.1104 64.4325 19.3086Z" fill="black"/>
</svg>
