<svg width="95" height="28" viewBox="0 0 95 28" fill="none" xmlns="http://www.w3.org/2000/svg">
<path fill-rule="evenodd" clip-rule="evenodd" d="M0.437073 0.465413C0.142773 0.796125 0.0440437 3.08965 0.0440437 9.60525C0.0440437 16.2599 0.136484 18.3462 0.437073 18.4853C0.751497 18.6303 0.751497 18.7031 0.437073 18.848C-0.515002 19.2876 0.232384 22.0889 1.30174 22.0889C1.8218 22.0889 2.55943 21.2809 2.55943 20.711C2.55943 20.4422 2.70093 20.2222 2.87386 20.2222C3.04679 20.2222 3.18828 19.973 3.18828 19.6688C3.18828 19.3642 3.48855 18.9093 3.8558 18.6576C4.22273 18.406 4.70789 18.0252 4.93365 17.8111C5.43264 17.3385 10.1056 17.2682 10.1056 17.7333C10.1056 17.9044 10.3886 18.0444 10.7345 18.0444C11.0803 18.0444 11.3633 18.2236 11.3633 18.4424C11.3633 18.6614 11.6463 19.0422 11.9921 19.2889C12.338 19.5356 12.621 19.9864 12.621 20.291C12.621 20.5952 12.7625 20.8444 12.9354 20.8444C13.1084 20.8444 13.2498 21.0644 13.2498 21.3332C13.2498 22.5636 13.9337 22.7111 19.6468 22.7111C23.7384 22.7111 25.1926 22.6116 25.3291 22.3222C25.4756 22.0111 25.5492 22.0111 25.6957 22.3222C25.7966 22.5363 26.433 22.7111 27.1106 22.7111C28.1325 22.7111 28.3422 22.6053 28.3422 22.0889C28.3422 21.7467 28.4837 21.4667 28.6566 21.4667C28.8295 21.4667 28.971 21.0467 28.971 20.5333C28.971 20.02 29.1125 19.6 29.2854 19.6C29.4584 19.6 29.5999 19.3166 29.5999 18.97C29.5999 18.5189 29.8678 18.2871 30.5431 18.1533C31.0619 18.0507 31.4864 17.8441 31.4864 17.6944C31.4864 17.5448 31.7694 17.4222 32.1153 17.4222C32.4611 17.4222 32.7441 17.2822 32.7441 17.1111C32.7441 16.94 33.3101 16.8 34.0018 16.8C34.6935 16.8 35.2595 16.94 35.2595 17.1111C35.2595 17.2822 35.5425 17.4222 35.8883 17.4222C36.2342 17.4222 36.5172 17.5622 36.5172 17.7333C36.5172 17.9044 36.8002 18.0444 37.146 18.0444C37.4919 18.0444 37.7749 18.2236 37.7749 18.4424C37.7749 18.6614 38.0579 19.0422 38.4037 19.2889C38.7729 19.5524 39.0326 20.0944 39.0326 20.6021C39.0326 21.0775 39.1741 21.4667 39.347 21.4667C39.5199 21.4667 39.6614 21.7467 39.6614 22.0889C39.6614 22.5951 39.8712 22.7111 40.7842 22.7111C42.8535 22.7111 42.8057 22.9902 42.8057 10.911V0L21.8179 0.01183C4.09414 0.0217855 0.769105 0.0923912 0.437073 0.465413ZM40.2903 7.15556V11.2H21.4249H2.55943V7.15556V3.11111H21.4249H40.2903V7.15556ZM54.7538 5.6C54.7538 5.77111 54.4708 5.91111 54.1249 5.91111C53.7791 5.91111 53.4961 6.04177 53.4961 6.20137C53.4961 6.36097 53.2131 6.58031 52.8672 6.68889C52.5214 6.79747 52.2384 7.02457 52.2384 7.19382C52.2384 7.52733 48.9687 10.7585 47.8786 11.5021C47.5094 11.7538 47.2076 12.2086 47.2076 12.5132C47.2076 12.8175 47.0661 13.0667 46.8932 13.0667C46.6986 13.0667 46.5788 14.7333 46.5788 17.4443C46.5788 22.1984 46.7451 22.7111 48.2858 22.7111C48.8844 22.7111 49.0941 22.5496 49.0941 22.0889C49.0941 21.7467 49.2356 21.4667 49.4086 21.4667C49.5815 21.4667 49.723 21.103 49.723 20.6581C49.723 20.1547 50.0915 19.5088 50.6996 18.947C51.5781 18.135 51.8897 18.0444 53.8045 18.0444C56.6872 18.0444 57.898 18.3117 57.898 18.9479C57.898 19.231 58.181 19.6644 58.5269 19.9111C58.8727 20.1578 59.1557 20.6086 59.1557 20.9132C59.1557 21.2175 59.2972 21.4667 59.4701 21.4667C59.6431 21.4667 59.7846 21.7467 59.7846 22.0889C59.7846 22.6987 59.9943 22.7111 70.3401 22.7111C81.7096 22.7111 81.7942 22.699 81.7942 21.0908C81.7942 20.6886 82.0772 20.1578 82.4231 19.9111C82.7689 19.6644 83.0519 19.2136 83.0519 18.909C83.0519 18.5699 83.2865 18.3556 83.6584 18.3556C83.9917 18.3556 84.4769 18.1456 84.7363 17.8889C85.2453 17.3852 88.0827 17.224 88.0827 17.6988C88.0827 17.8506 88.5983 18.0709 89.2284 18.1879C90.4962 18.4231 91.2269 18.9884 91.2269 19.7335C91.2269 20.0023 91.3684 20.2222 91.5413 20.2222C91.7143 20.2222 91.8558 20.5022 91.8558 20.8444C91.8558 21.1867 91.9973 21.4667 92.1702 21.4667C92.3431 21.4667 92.4846 21.7467 92.4846 22.0889C92.4846 22.4473 92.6943 22.7111 92.9786 22.7111C93.614 22.7111 94.3712 21.962 94.3712 21.3332C94.3712 21.0644 94.5126 20.8444 94.6856 20.8444C94.872 20.8444 95 19.6989 95 18.0305C95 15.4573 94.934 15.1508 94.2281 14.4527C93.4923 13.7244 93.2763 13.6889 89.5812 13.6889C86.0669 13.6889 85.6638 13.631 85.2529 13.0667C85.0035 12.7244 84.6136 12.4444 84.3863 12.4444C84.1587 12.4444 83.6594 12.1641 83.2764 11.8216C80.3001 9.15786 79.2788 8.05093 79.2788 7.48689C79.2788 7.13347 79.1436 6.84444 78.9785 6.84444C78.8135 6.84444 78.3249 6.49444 77.8925 6.06667L77.1065 5.28889H65.93C58.6888 5.28889 54.7538 5.3984 54.7538 5.6ZM63.1083 8.22236C63.3992 8.50983 63.5576 9.33334 63.5576 10.5557V12.4444H57.898C52.4481 12.4444 52.2384 12.4214 52.2384 11.8222C52.2384 11.48 52.3799 11.2 52.5528 11.2C52.7257 11.2 52.8672 11.0566 52.8672 10.8817C52.8672 10.7066 53.4687 9.94654 54.2035 9.19303L55.5398 7.8229L59.0994 7.80018C61.7893 7.78338 62.7691 7.88636 63.1083 8.22236ZM76.1346 8.08889C76.1346 8.26 76.4176 8.4 76.7634 8.4C77.1301 8.4 77.3923 8.60751 77.3923 8.89747C77.3923 9.41111 79.1282 11.2 79.6266 11.2C79.7813 11.2 79.9077 11.48 79.9077 11.8222C79.9077 12.4264 79.698 12.4444 72.6759 12.4444C68.0643 12.4444 65.4442 12.3318 65.4442 12.1333C65.4442 11.9622 65.5857 11.8222 65.7586 11.8222C65.9359 11.8222 66.073 10.9408 66.073 9.8V7.77778H71.1038C74.248 7.77778 76.1346 7.89444 76.1346 8.08889ZM32.7441 17.7333C32.7441 17.9044 32.4828 18.0444 32.1634 18.0444C31.4091 18.0444 30.2287 19.0633 30.2287 19.7142C30.2287 19.9936 30.0872 20.2222 29.9143 20.2222C29.7414 20.2222 29.5999 20.5022 29.5999 20.8444C29.5999 21.1867 29.4584 21.4667 29.2854 21.4667C29.1125 21.4667 28.971 22.1667 28.971 23.0222C28.971 23.8778 29.1125 24.5778 29.2854 24.5778C29.4584 24.5778 29.5999 24.8484 29.5999 25.1792C29.5999 25.5099 29.8829 25.8692 30.2287 25.9778C30.5746 26.0864 30.8576 26.3057 30.8576 26.4653C30.8576 26.6249 31.282 26.7556 31.8008 26.7556C32.3196 26.7556 32.7441 26.8956 32.7441 27.0667C32.7441 27.2378 33.3101 27.3778 34.0018 27.3778C34.6935 27.3778 35.2595 27.2378 35.2595 27.0667C35.2595 26.8956 35.5425 26.7556 35.8883 26.7556C36.2342 26.7556 36.5172 26.6249 36.5172 26.4653C36.5172 26.3057 36.8002 26.0864 37.146 25.9778C37.4919 25.8692 37.7749 25.5099 37.7749 25.1792C37.7749 24.8484 37.9164 24.5778 38.0893 24.5778C38.2622 24.5778 38.4037 24.2978 38.4037 23.9556C38.4037 23.6133 38.5452 23.3333 38.7182 23.3333C38.8911 23.3333 39.0326 22.9133 39.0326 22.4C39.0326 21.8867 38.8911 21.4667 38.7182 21.4667C38.5452 21.4667 38.4037 21.1867 38.4037 20.8444C38.4037 20.5022 38.2622 20.2222 38.0893 20.2222C37.9164 20.2222 37.7749 19.9936 37.7749 19.7142C37.7749 19.0633 36.5945 18.0444 35.8402 18.0444C35.5208 18.0444 35.2595 17.9044 35.2595 17.7333C35.2595 17.5622 34.6935 17.4222 34.0018 17.4222C33.3101 17.4222 32.7441 17.5622 32.7441 17.7333ZM4.49409 18.6253C4.12181 18.9448 3.81713 19.4348 3.81713 19.7142C3.81713 19.9936 3.67564 20.2222 3.50271 20.2222C3.32977 20.2222 3.18828 20.5022 3.18828 20.8444C3.18828 21.1867 3.04679 21.4667 2.87386 21.4667C2.70093 21.4667 2.55943 21.8867 2.55943 22.4C2.55943 22.9133 2.70093 23.3333 2.87386 23.3333C3.04679 23.3333 3.18828 23.6133 3.18828 23.9556C3.18828 24.2978 3.32977 24.5778 3.50271 24.5778C3.67564 24.5778 3.81713 24.8612 3.81713 25.2078C3.81713 25.6589 4.08502 25.8907 4.7604 26.0245C5.2792 26.1271 5.70367 26.3337 5.70367 26.4833C5.70367 26.633 6.55262 26.7556 7.59022 26.7556C8.63819 26.7556 9.47676 26.6174 9.47676 26.4444C9.47676 26.2733 9.73804 26.1333 10.0575 26.1333C11.0941 26.1333 11.9921 25.0696 11.9921 23.8414C11.9921 23.2198 12.1336 22.7111 12.3066 22.7111C12.4795 22.7111 12.621 22.4311 12.621 22.0889C12.621 21.7467 12.4795 21.4667 12.3066 21.4667C12.1336 21.4667 11.9921 21.103 11.9921 20.6581C11.9921 20.1547 11.6236 19.5088 11.0156 18.947C10.1122 18.112 9.85721 18.0444 7.60499 18.0444C5.68009 18.0444 5.02955 18.1658 4.49409 18.6253ZM85.1281 18.2498C84.3209 18.4784 83.0519 19.7705 83.0519 20.3638C83.0519 20.6282 82.9104 20.8444 82.7375 20.8444C82.5645 20.8444 82.4231 21.2644 82.4231 21.7778C82.4231 22.2911 82.2816 22.7111 82.1086 22.7111C81.9357 22.7111 81.7942 23.2711 81.7942 23.9556C81.7942 24.64 81.9357 25.2 82.1086 25.2C82.2816 25.2 82.4231 25.3462 82.4231 25.5251C82.4231 25.704 82.7705 26.194 83.195 26.614C83.7836 27.1967 84.2992 27.3778 85.3695 27.3778C86.1845 27.3778 86.8495 27.5408 86.9561 27.7667C87.1026 28.0778 87.1762 28.0778 87.3227 27.7667C87.4237 27.5529 87.8547 27.3778 88.2805 27.3778C88.7062 27.3778 89.4083 27.0278 89.8406 26.6C90.273 26.1722 90.7616 25.8222 90.9266 25.8222C91.0917 25.8222 91.2269 25.4022 91.2269 24.8889C91.2269 24.3756 91.3684 23.9556 91.5413 23.9556C91.7143 23.9556 91.8558 23.3956 91.8558 22.7111C91.8558 22.0267 91.7143 21.4667 91.5413 21.4667C91.3684 21.4667 91.2269 21.252 91.2269 20.9897C91.2269 20.7271 90.7254 20.0166 90.1129 19.4102C89.1753 18.4825 88.7392 18.2899 87.3617 18.1944C86.4612 18.1322 85.456 18.1571 85.1281 18.2498ZM52.2384 18.6667C52.2384 18.8378 51.9554 18.9778 51.6095 18.9778C51.1904 18.9778 50.9807 19.1853 50.9807 19.6C50.9807 19.9422 50.8392 20.2222 50.6663 20.2222C50.4933 20.2222 50.3518 20.5022 50.3518 20.8444C50.3518 21.1867 50.2104 21.4667 50.0374 21.4667C49.8645 21.4667 49.723 21.7467 49.723 22.0889C49.723 22.4311 49.5815 22.7111 49.4086 22.7111C49.2356 22.7111 49.0941 22.9911 49.0941 23.3333C49.0941 23.6756 49.2356 23.9556 49.4086 23.9556C49.5815 23.9556 49.723 24.2356 49.723 24.5778C49.723 24.92 49.8645 25.2 50.0374 25.2C50.2104 25.2 50.3518 25.35 50.3518 25.5332C50.3518 26.0291 51.1797 26.7556 51.7444 26.7556C52.0161 26.7556 52.2384 26.8956 52.2384 27.0667C52.2384 27.2396 53.077 27.3778 54.1249 27.3778C55.1729 27.3778 56.0115 27.2396 56.0115 27.0667C56.0115 26.8956 56.2944 26.7556 56.6403 26.7556C56.9862 26.7556 57.2692 26.6249 57.2692 26.4653C57.2692 26.3057 57.5521 26.0864 57.898 25.9778C58.2439 25.8692 58.5269 25.5099 58.5269 25.1792C58.5269 24.8484 58.6684 24.5778 58.8413 24.5778C59.0142 24.5778 59.1557 23.9086 59.1557 23.091C59.1557 21.961 59.0048 21.4965 58.5269 21.1556C58.181 20.9088 57.898 20.5215 57.898 20.295C57.898 20.0682 57.5506 19.5393 57.1261 19.1193C56.4639 18.4638 56.0624 18.3556 54.2963 18.3556C53.1339 18.3556 52.2384 18.4909 52.2384 18.6667ZM7.59022 20.5333C7.59022 20.7044 7.81252 20.8444 8.08418 20.8444C8.78534 20.8444 9.47676 21.6169 9.47676 22.4C9.47676 23.4491 8.71617 23.9556 7.14091 23.9556H5.70367V22.4C5.70367 21.052 5.78762 20.8444 6.33252 20.8444C6.67839 20.8444 6.96137 20.7044 6.96137 20.5333C6.96137 20.3622 7.10286 20.2222 7.27579 20.2222C7.44872 20.2222 7.59022 20.3622 7.59022 20.5333ZM34.6307 20.5333C34.6307 20.7044 34.9136 20.8444 35.2595 20.8444C35.7447 20.8444 35.8883 21.052 35.8883 21.752C35.8883 22.251 36.0613 22.7164 36.2726 22.7861C36.5181 22.867 36.3531 23.2129 35.8151 23.7452C34.8728 24.6776 33.3038 24.8649 32.5646 24.1332C32.0565 23.6308 31.9474 21.4667 32.4297 21.4667C32.6026 21.4667 32.7441 21.1867 32.7441 20.8444C32.7441 20.3604 32.9538 20.2222 33.6874 20.2222C34.2062 20.2222 34.6307 20.3622 34.6307 20.5333ZM87.4538 21.1556C87.4538 21.3267 87.6761 21.4667 87.9478 21.4667C88.2198 21.4667 88.6442 21.6667 88.8911 21.9113C89.4064 22.4209 89.4929 23.3333 89.026 23.3333C88.853 23.3333 88.7115 23.5533 88.7115 23.8221C88.7115 24.6976 87.8594 25.2 86.3757 25.2H84.9384V23.3333C84.9384 21.6742 85.0082 21.4667 85.5673 21.4667C85.9132 21.4667 86.1961 21.3267 86.1961 21.1556C86.1961 20.9844 86.4791 20.8444 86.825 20.8444C87.1709 20.8444 87.4538 20.9844 87.4538 21.1556ZM55.5622 21.9113C56.0728 22.4162 56.1743 23.9556 55.697 23.9556C55.5241 23.9556 55.3826 24.2356 55.3826 24.5778C55.3826 25.0964 55.1729 25.2 54.1249 25.2C53.077 25.2 52.8672 25.0964 52.8672 24.5778C52.8672 24.2356 52.7257 23.9556 52.5528 23.9556C52.3799 23.9556 52.2384 23.3956 52.2384 22.7111V21.4667H53.6756C54.5022 21.4667 55.304 21.6555 55.5622 21.9113Z" fill="black"/>
</svg>
