<svg width="72" height="30" viewBox="0 0 72 30" fill="none" xmlns="http://www.w3.org/2000/svg">
<path fill-rule="evenodd" clip-rule="evenodd" d="M0 9V18H27.3786C50.7579 18 54.8122 17.9455 55.1313 17.6272C55.428 17.3319 55.5055 16.2783 55.5055 12.5403C55.5055 9.57132 55.4086 7.82609 55.2436 7.82609C55.0996 7.82609 54.9818 7.23913 54.9818 6.52174C54.9818 5.80435 55.0996 5.21739 55.2436 5.21739C55.3876 5.21739 55.5055 4.74783 55.5055 4.17391C55.5055 3.6 55.3876 3.13043 55.2436 3.13043C55.0981 3.13043 54.9818 2.4347 54.9818 1.56522V0H27.4909H0V9ZM57.4036 0.390269C57.1552 0.671487 57.0764 2.96035 57.0764 9.90209V19.0435H28.5382H0V21.6522C0 23.2174 0.104727 24.2609 0.261818 24.2609C0.405818 24.2609 0.523636 24.5627 0.523636 24.9316C0.523636 25.8931 1.11194 26.3478 2.35636 26.3478C3.48061 26.3478 4.18909 25.9012 4.18909 25.1924C4.18909 24.9671 4.30691 24.7826 4.45091 24.7826C4.59491 24.7826 4.71273 24.4304 4.71273 24C4.71273 23.5696 4.83055 23.2174 4.97455 23.2174C5.11855 23.2174 5.23636 23.033 5.23636 22.8076C5.23636 21.7581 5.77466 21.6522 11.1087 21.6522C14.3503 21.6522 16.2327 21.7479 16.2327 21.913C16.2327 22.0565 15.9971 22.1739 15.7091 22.1739C15.4211 22.1739 15.1855 22.2913 15.1855 22.4348C15.1855 22.5783 14.9498 22.6957 14.6618 22.6957C14.3128 22.6957 14.1382 22.8697 14.1382 23.2174C14.1382 23.5043 14.0204 23.7391 13.8764 23.7391C13.7269 23.7391 13.6145 24.5217 13.6145 25.5652C13.6145 26.6087 13.7269 27.3913 13.8764 27.3913C14.0204 27.3913 14.1382 27.5726 14.1382 27.7944C14.1382 28.4283 15.3551 29.4783 16.09 29.4783C16.4566 29.4783 16.7564 29.5957 16.7564 29.7391C16.7564 29.8826 17.1098 30 17.5418 30C17.9738 30 18.3273 29.8826 18.3273 29.7391C18.3273 29.5957 18.6807 29.4783 19.1127 29.4783C19.5447 29.4783 19.8982 29.3609 19.8982 29.2174C19.8982 29.0739 20.0833 28.9565 20.3095 28.9565C21.1405 28.9565 21.4691 28.2595 21.4691 26.4968C21.4691 25.5279 21.3552 24.7826 21.2073 24.7826C21.0633 24.7826 20.9455 24.6026 20.9455 24.3827C20.9455 24.1625 20.537 23.5756 20.0377 23.0784C19.5387 22.5809 18.9496 22.1739 18.7286 22.1739C18.5079 22.1739 18.3273 22.0565 18.3273 21.913C18.3273 21.7696 18.7436 21.6522 19.2523 21.6522C19.9589 21.6522 20.392 21.8658 21.085 22.5566C21.5843 23.0538 21.9927 23.705 21.9927 24.0031C21.9927 24.7106 23.1227 25.8261 23.8393 25.8261C24.1483 25.8261 24.7311 25.4739 25.1345 25.0435C25.538 24.613 26.0567 24.2609 26.2868 24.2609C26.5172 24.2609 26.7055 24.1435 26.7055 24C26.7055 23.8291 31.7324 23.7391 41.2623 23.7391H55.8191L56.5527 24.5217C56.9562 24.9522 57.4243 25.3043 57.5929 25.3043C58.1158 25.3043 58.6473 24.5904 58.6473 23.8881C58.6473 23.5192 58.7651 23.2174 58.9091 23.2174C59.0531 23.2174 59.1709 23.0374 59.1709 22.8175C59.1709 22.1601 60.912 20.6087 61.6495 20.6087C62.0143 20.6087 62.3127 20.4913 62.3127 20.3478C62.3127 20.2043 62.6662 20.087 63.0982 20.087C63.5302 20.087 63.8836 20.2043 63.8836 20.3478C63.8836 20.4913 64.2402 20.6087 64.6759 20.6087C65.2653 20.6087 65.7685 20.9077 66.6395 21.7758C67.2839 22.4176 67.8109 23.189 67.8109 23.49C67.8109 24.4576 68.4317 24.7826 70.2796 24.7826H72V17.8696C72 13.4348 71.9063 10.9565 71.7382 10.9565C71.5942 10.9565 71.4764 10.487 71.4764 9.91304C71.4764 9.33913 71.3585 8.86957 71.2145 8.86957C71.0705 8.86957 70.9527 8.4 70.9527 7.82609C70.9527 7.25217 70.8349 6.78261 70.6909 6.78261C70.5469 6.78261 70.4291 6.43043 70.4291 6C70.4291 5.56957 70.3113 5.21739 70.1673 5.21739C70.0233 5.21739 69.9054 4.74783 69.9054 4.17391C69.9054 3.6 69.7876 3.13043 69.6436 3.13043C69.4996 3.13043 69.3818 2.66087 69.3818 2.08696C69.3818 1.51304 69.264 1.04348 69.12 1.04348C68.976 1.04348 68.8582 0.808696 68.8582 0.521739C68.8582 0.0161739 68.687 0.000267366 63.2945 0.00991954C58.8264 0.0180065 57.6665 0.0928781 57.4036 0.390269ZM67.4368 1.938C67.6426 2.14279 67.8109 2.72974 67.8109 3.24235C67.8109 3.7547 67.9287 4.17391 68.0727 4.17391C68.2167 4.17391 68.3345 4.76087 68.3345 5.47826C68.3345 6.19565 68.4524 6.78261 68.5964 6.78261C68.7404 6.78261 68.8582 7.25217 68.8582 7.82609C68.8582 8.4 68.976 8.86957 69.12 8.86957C69.264 8.86957 69.3818 9.10435 69.3818 9.3913C69.3818 9.89609 69.2072 9.91304 64.0145 9.91304H58.6473V5.73913V1.56522H62.8549C66.1528 1.56522 67.1438 1.64583 67.4368 1.938ZM60.5455 22.0539C60.0773 22.5423 59.6945 23.1211 59.6945 23.3405C59.6945 23.5596 59.5767 23.7391 59.4327 23.7391C59.2887 23.7391 59.1709 24.3261 59.1709 25.0435C59.1709 25.7609 59.2887 26.3478 59.4327 26.3478C59.5767 26.3478 59.6945 26.5291 59.6945 26.7509C59.6945 26.9726 59.9838 27.4422 60.3373 27.7944C60.9196 28.3748 61.1903 28.4348 63.2259 28.4348C65.4396 28.4348 65.4852 28.4217 66.3796 27.5304C67.2158 26.6974 67.2873 26.5015 67.2873 25.0435C67.2873 23.5855 67.2158 23.3896 66.3796 22.5566C65.8805 22.0591 65.3503 21.6522 65.2014 21.6522C65.0527 21.6522 64.9309 21.5348 64.9309 21.3913C64.9309 21.2413 64.1792 21.138 63.1636 21.1484C61.505 21.1651 61.344 21.221 60.5455 22.0539ZM6.08727 22.5642C5.9074 22.7679 5.76 23.1157 5.76 23.3369C5.76 23.5581 5.64218 23.7391 5.49818 23.7391C5.35418 23.7391 5.23636 23.9739 5.23636 24.2609C5.23636 24.5478 5.11855 24.7826 4.97455 24.7826C4.82662 24.7826 4.71273 25.5279 4.71273 26.4968C4.71273 28.2595 5.04131 28.9565 5.87232 28.9565C6.09853 28.9565 6.28364 29.0739 6.28364 29.2174C6.28364 29.371 7.20288 29.4783 8.51773 29.4783C10.718 29.4783 10.7657 29.4644 11.6595 28.5738C12.1588 28.0766 12.5673 27.4897 12.5673 27.2695C12.5673 27.0496 12.6851 26.8696 12.8291 26.8696C12.9731 26.8696 13.0909 26.6348 13.0909 26.3478C13.0909 26.0609 12.9731 25.8261 12.8291 25.8261C12.6851 25.8261 12.5673 25.4739 12.5673 25.0435C12.5673 24.613 12.4495 24.2609 12.3055 24.2609C12.1615 24.2609 12.0436 24.0764 12.0436 23.851C12.0436 23.3238 11.4132 22.6957 10.884 22.6957C10.6578 22.6957 10.4727 22.5783 10.4727 22.4348C10.4727 22.008 6.4745 22.1259 6.08727 22.5642ZM64.4073 24.6707C64.4073 25.7267 63.9224 26.3478 63.0982 26.3478C62.274 26.3478 61.7891 25.7267 61.7891 24.6707V23.7391H63.0982H64.4073V24.6707ZM9.57496 25.1554C9.78075 25.3602 9.94909 25.8297 9.94909 26.1989C9.94909 26.8299 9.87159 26.8696 8.64 26.8696H7.33091V25.8261C7.33091 24.8035 7.3495 24.7826 8.26587 24.7826C8.78034 24.7826 9.36943 24.9504 9.57496 25.1554ZM18.8509 25.8261V26.8696H17.5418C16.3141 26.8696 16.2327 26.8284 16.2327 26.2064C16.2327 25.2496 16.7485 24.8037 17.8691 24.7925C18.8417 24.7826 18.8509 24.7925 18.8509 25.8261Z" fill="black"/>
</svg>
