<svg width="92" height="26" viewBox="0 0 92 26" fill="none" xmlns="http://www.w3.org/2000/svg">
<path fill-rule="evenodd" clip-rule="evenodd" d="M29.1828 10.8131V21.6262H31.0552C33.4566 21.6262 33.6344 21.4592 33.6344 19.2026C33.6344 17.6905 33.7106 17.3984 34.2416 16.8769C34.5754 16.5489 35.0206 16.2804 35.2308 16.2804C35.441 16.2804 35.6129 16.171 35.6129 16.0374C35.6129 15.8819 37.8387 15.7944 41.7957 15.7944C45.7527 15.7944 47.9785 15.8819 47.9785 16.0374C47.9785 16.171 48.2011 16.2804 48.4731 16.2804C48.7452 16.2804 48.9677 16.3897 48.9677 16.5234C48.9677 16.657 49.1396 16.7664 49.3498 16.7664C49.9508 16.7664 50.9462 17.8958 50.9462 18.5779C50.9462 18.918 51.0575 19.1963 51.1936 19.1963C51.3296 19.1963 51.4409 19.5868 51.4409 20.064C51.4409 21.7042 50.7306 21.6262 65.6437 21.6262H79.1398V20.8972C79.1398 20.4963 79.2511 20.1682 79.3871 20.1682C79.5231 20.1682 79.6344 19.7309 79.6344 19.1963C79.6344 18.6617 79.7457 18.2243 79.8817 18.2243C80.0177 18.2243 80.129 18.0554 80.129 17.8489C80.129 17.3627 81.2306 16.2804 81.7254 16.2804C81.9357 16.2804 82.1075 16.171 82.1075 16.0374C82.1075 15.9038 82.3301 15.7944 82.6021 15.7944C82.8742 15.7944 83.0968 15.6851 83.0968 15.5514C83.0968 15.4163 83.7564 15.3084 84.5806 15.3084C85.4049 15.3084 86.0645 15.4163 86.0645 15.5514C86.0645 15.6851 86.2352 15.7944 86.4436 15.7944C86.9361 15.7944 88.5376 17.368 88.5376 17.8518C88.5376 18.0567 88.6489 18.2243 88.785 18.2243C88.921 18.2243 89.0323 18.5524 89.0323 18.9533C89.0323 19.3542 89.1435 19.6822 89.2796 19.6822C89.4156 19.6822 89.5269 20.0103 89.5269 20.4112C89.5269 21.1239 89.5543 21.1402 90.7634 21.1402H92V16.7664C92 14.0126 91.9085 12.3925 91.7527 12.3925C91.6167 12.3925 91.5054 12.2236 91.5054 12.0171C91.5054 11.5309 90.4038 10.4486 89.909 10.4486C89.6918 10.4486 89.5269 10.2389 89.5269 9.96263C89.5269 9.69534 89.4156 9.47665 89.2796 9.47665C89.1384 9.47665 89.0323 8.74768 89.0323 7.77572C89.0323 6.80375 88.9262 6.07478 88.785 6.07478C88.6465 6.07478 88.5376 5.40411 88.5376 4.54903C88.5376 3.302 88.6279 2.95916 89.0323 2.67291C90.0237 1.97067 89.448 0.485981 88.1842 0.485981C87.8345 0.485981 87.5484 0.376636 87.5484 0.242991C87.5484 0.0823738 77.6559 0 58.3656 0H29.1828V10.8131ZM0 8.76494C0 13.9314 0.0652868 15.1641 0.353405 15.4472C0.648943 15.7378 2.50601 15.7944 11.7298 15.7944C18.9134 15.7944 22.7527 15.7098 22.7527 15.5514C22.7527 15.4178 22.9753 15.3084 23.2473 15.3084C23.5194 15.3084 23.7419 15.4178 23.7419 15.5514C23.7419 15.6851 24.1871 15.7944 24.7312 15.7944H25.7204V9.11216V2.42992H12.8602H0V8.76494ZM76.8079 3.26313C77.0023 3.45387 77.1613 3.78191 77.1613 3.9921C77.1613 4.20204 77.2726 4.37385 77.4086 4.37385C77.5481 4.37385 77.6559 5.06224 77.6559 5.95329C77.6559 6.84433 77.7637 7.53273 77.9032 7.53273C78.0407 7.53273 78.1505 8.18078 78.1505 8.99067V10.4486H74.1936H70.2366V8.50469C70.2366 7.37065 70.1334 6.56076 69.9893 6.56076C69.6287 6.56076 69.6828 3.69031 70.0511 3.27941C70.4985 2.78006 76.3021 2.76597 76.8079 3.26313ZM86.5591 3.40188C86.5591 3.66917 86.6704 3.88787 86.8064 3.88787C86.9459 3.88787 87.0538 4.57626 87.0538 5.4673C87.0538 6.35835 87.1616 7.04674 87.3011 7.04674C87.6941 7.04674 87.6018 9.70191 87.195 10.1014C86.9237 10.3682 86.0645 10.4486 83.4853 10.4486H80.129V9.71964C80.129 9.31871 80.0177 8.99067 79.8817 8.99067C79.7442 8.99067 79.6344 8.34261 79.6344 7.53273C79.6344 6.72284 79.5246 6.07478 79.3871 6.07478C79.0297 6.07478 79.0824 3.68836 79.4489 3.27941C79.6868 3.01382 80.5406 2.93217 83.1586 2.92513C86.3974 2.91638 86.5591 2.93899 86.5591 3.40188ZM39.0753 3.88787C39.0753 4.15516 39.1866 4.37385 39.3226 4.37385C39.4586 4.37385 39.5699 4.97525 39.5699 5.7103C39.5699 6.44534 39.6812 7.04674 39.8172 7.04674C40.2169 7.04674 40.1231 10.1828 39.7111 10.5874C39.4354 10.8585 38.5146 10.9346 35.5068 10.9346H31.6559V7.16824V3.40188H35.3656C38.9103 3.40188 39.0753 3.42351 39.0753 3.88787ZM48.9677 4.73833C48.9677 5.47338 49.079 6.07478 49.2151 6.07478C49.3617 6.07478 49.4624 6.96583 49.4624 8.2617V10.4486H48.741C48.3443 10.4486 47.9548 10.5854 47.8754 10.7524C47.7601 10.9953 47.7022 10.9953 47.587 10.7524C47.3854 10.3281 43.1151 10.3261 42.9712 10.7502C42.7701 11.3431 42.043 10.264 42.043 9.37242C42.043 8.89518 41.9317 8.50469 41.7957 8.50469C41.6515 8.50469 41.5484 7.6948 41.5484 6.56076C41.5484 5.42673 41.4453 4.61684 41.3011 4.61684C41.1651 4.61684 41.0538 4.34347 41.0538 4.00936V3.40188H45.0108H48.9677V4.73833ZM57.871 3.88787C57.871 4.15516 57.9823 4.37385 58.1183 4.37385C58.2543 4.37385 58.3656 4.97525 58.3656 5.7103C58.3656 6.44534 58.4769 7.04674 58.6129 7.04674C58.7541 7.04674 58.8602 7.77572 58.8602 8.74768V10.4486H55.1505H51.4409V9.71964C51.4409 9.31871 51.3296 8.99067 51.1936 8.99067C51.0429 8.99067 50.9462 7.89721 50.9462 6.19628V3.40188H54.4086C57.706 3.40188 57.871 3.42497 57.871 3.88787ZM67.7634 4.73833C67.7634 5.47338 67.8747 6.07478 68.0107 6.07478C68.1574 6.07478 68.2581 6.96583 68.2581 8.2617V10.4486H64.9018C60.9433 10.4486 60.8387 10.3959 60.8387 8.40046C60.8387 7.65593 60.7274 7.04674 60.5914 7.04674C60.4485 7.04674 60.3441 6.27719 60.3441 5.22431V3.40188H64.0538H67.7634V4.73833ZM83.0968 16.5234C83.0968 16.657 82.9261 16.7664 82.7176 16.7664C82.2252 16.7664 80.6237 18.34 80.6237 18.8238C80.6237 19.0286 80.5124 19.1963 80.3763 19.1963C80.2351 19.1963 80.129 19.9252 80.129 20.8972C80.129 21.8692 80.2351 22.5981 80.3763 22.5981C80.5124 22.5981 80.6237 22.7658 80.6237 22.9706C80.6237 23.1757 81.0095 23.7224 81.4811 24.1856C81.9525 24.649 82.5089 25.028 82.7176 25.028C82.9261 25.028 83.0968 25.1374 83.0968 25.271C83.0968 25.4061 83.7564 25.514 84.5806 25.514C85.4049 25.514 86.0645 25.4061 86.0645 25.271C86.0645 25.1374 86.2871 25.028 86.5591 25.028C86.8685 25.028 87.0538 24.8659 87.0538 24.5957C87.0538 24.3579 87.2763 24.0058 87.5484 23.8131C87.8204 23.6204 88.043 23.2683 88.043 23.0304C88.043 22.7928 88.1543 22.5981 88.2903 22.5981C88.4315 22.5981 88.5376 21.8692 88.5376 20.8972C88.5376 19.9252 88.4315 19.1963 88.2903 19.1963C88.1543 19.1963 88.043 18.9776 88.043 18.7103C88.043 18.443 87.9317 18.2243 87.7957 18.2243C87.6597 18.2243 87.5484 18.0525 87.5484 17.8426C87.5484 17.3515 86.9529 16.7664 86.453 16.7664C86.2394 16.7664 86.0645 16.657 86.0645 16.5234C86.0645 16.3883 85.4049 16.2804 84.5806 16.2804C83.7564 16.2804 83.0968 16.3883 83.0968 16.5234ZM0 19.578C0 22.7085 0.159022 23.0841 1.48387 23.0841C2.50032 23.0841 2.96774 22.5921 2.96774 21.5219C2.96774 21.0447 3.07903 20.6542 3.21506 20.6542C3.35108 20.6542 3.46237 20.4355 3.46237 20.1682C3.46237 19.8443 3.62732 19.6822 3.95699 19.6822C4.22903 19.6822 4.45161 19.5729 4.45161 19.4393C4.45161 19.3056 4.6742 19.1963 4.94624 19.1963C5.21828 19.1963 5.44086 19.0869 5.44086 18.9533C5.44086 18.8196 5.77473 18.7103 6.1828 18.7103C6.59086 18.7103 6.92473 18.8196 6.92473 18.9533C6.92473 19.0869 7.09538 19.1963 7.30386 19.1963C7.92709 19.1963 9.39785 20.8122 9.39785 21.4967C9.39785 21.8351 9.50914 22.1122 9.64516 22.1122C9.78119 22.1122 9.89248 22.3308 9.89248 22.5981C9.89248 23.0603 10.0574 23.0841 13.2487 23.0841C17.0183 23.0841 17.3118 22.9711 17.3118 21.5219C17.3118 21.0447 17.4231 20.6542 17.5591 20.6542C17.6952 20.6542 17.8065 20.4824 17.8065 20.2725C17.8065 19.7814 18.402 19.1963 18.9018 19.1963C19.1155 19.1963 19.2903 19.0869 19.2903 18.9533C19.2903 18.8196 19.8468 18.7103 20.5269 18.7103C21.207 18.7103 21.7634 18.8196 21.7634 18.9533C21.7634 19.0869 21.986 19.1963 22.2581 19.1963C22.5877 19.1963 22.7527 19.3583 22.7527 19.6822C22.7527 19.9495 22.864 20.1682 23 20.1682C23.136 20.1682 23.2473 20.3869 23.2473 20.6542C23.2473 20.9215 23.3586 21.1402 23.4946 21.1402C23.6306 21.1402 23.7419 21.312 23.7419 21.5219C23.7419 21.9671 24.3221 22.5981 24.7312 22.5981C25.508 22.5981 25.7204 21.8976 25.7204 19.335V16.7664H12.8602H0V19.578ZM38.086 17.0094C38.086 17.143 37.6409 17.2524 37.0968 17.2524C36.5527 17.2524 36.1075 17.3617 36.1075 17.4953C36.1075 17.629 35.9327 17.7383 35.719 17.7383C35.0745 17.7383 34.6237 18.3815 34.6237 19.3005C34.6237 19.7777 34.5124 20.1682 34.3763 20.1682C34.2403 20.1682 34.129 20.715 34.129 21.3832C34.129 22.0514 34.2403 22.5981 34.3763 22.5981C34.5124 22.5981 34.6237 22.8744 34.6237 23.2119C34.6237 23.615 35.0038 24.1992 35.7301 24.9129C36.7144 25.8802 36.9598 26 37.9559 26C38.5715 26 39.0753 25.8907 39.0753 25.757C39.0753 25.6234 39.2979 25.514 39.5699 25.514C39.8419 25.514 40.0645 25.4047 40.0645 25.271C40.0645 25.1374 40.2394 25.028 40.453 25.028C40.9529 25.028 41.5484 24.4429 41.5484 23.9518C41.5484 23.7419 41.6597 23.5701 41.7957 23.5701C41.9332 23.5701 42.043 22.922 42.043 22.1122C42.043 21.3023 41.9332 20.6542 41.7957 20.6542C41.6597 20.6542 41.5484 20.2168 41.5484 19.6822C41.5484 19.1477 41.4371 18.7103 41.3011 18.7103C41.1651 18.7103 41.0538 18.5385 41.0538 18.3285C41.0538 17.6953 40.3991 17.2524 39.4638 17.2524C38.9781 17.2524 38.5806 17.143 38.5806 17.0094C38.5806 16.8757 38.4694 16.7664 38.3333 16.7664C38.1973 16.7664 38.086 16.8757 38.086 17.0094ZM44.0833 17.3799C43.7774 17.7012 43.5269 18.132 43.5269 18.3371C43.5269 18.5424 43.4156 18.7103 43.2796 18.7103C43.1356 18.7103 43.0323 19.5136 43.0323 20.634C43.0323 21.9353 42.9323 22.6035 42.7231 22.6995C42.4758 22.8127 42.4758 22.8696 42.7231 22.9828C42.8933 23.0608 43.0323 23.2824 43.0323 23.4753C43.0323 23.668 43.5301 24.3151 44.1387 24.9129C45.1821 25.938 45.3229 26 46.6119 26C47.3634 26 47.9785 25.8907 47.9785 25.757C47.9785 25.6234 48.1504 25.514 48.3606 25.514C48.8555 25.514 49.957 24.4317 49.957 23.9455C49.957 23.739 50.0683 23.5701 50.2043 23.5701C50.3403 23.5701 50.4516 23.3514 50.4516 23.0841C50.4516 22.8168 50.5629 22.5981 50.6989 22.5981C50.8349 22.5981 50.9462 22.1607 50.9462 21.6262C50.9462 21.0916 50.8349 20.6542 50.6989 20.6542C50.5629 20.6542 50.4516 20.3262 50.4516 19.9252C50.4516 19.5243 50.3403 19.1963 50.2043 19.1963C50.0683 19.1963 49.957 19.0274 49.957 18.8208C49.957 18.3346 48.8555 17.2524 48.3606 17.2524C48.1504 17.2524 47.9785 17.143 47.9785 17.0094C47.9785 16.8699 47.2672 16.7727 46.3091 16.7812C44.8767 16.7941 44.5609 16.8789 44.0833 17.3799ZM85.7111 19.0575C85.9055 19.2483 86.0645 19.5763 86.0645 19.7865C86.0645 19.9964 86.1758 20.1682 86.3118 20.1682C86.4479 20.1682 86.5591 20.4963 86.5591 20.8972C86.5591 21.2981 86.4479 21.6262 86.3118 21.6262C86.1758 21.6262 86.0645 21.8449 86.0645 22.1122C86.0645 22.4361 85.8996 22.5981 85.5699 22.5981C85.2979 22.5981 85.0753 22.7075 85.0753 22.8411C85.0753 23.3152 83.8071 23.0751 83.2093 22.4876C82.7238 22.0108 82.6021 21.6437 82.6021 20.6549C82.6021 19.9751 82.7414 19.2636 82.9113 19.0738C83.3184 18.6197 85.2541 18.6082 85.7111 19.0575ZM5.93549 19.4393C5.93549 19.5729 5.64934 19.6822 5.29964 19.6822C4.58392 19.6822 3.95699 20.1847 3.95699 20.7584C3.95699 20.9684 3.8457 21.1402 3.70968 21.1402C3.57366 21.1402 3.46237 21.5686 3.46237 22.092C3.46237 22.6156 3.32338 23.1074 3.15323 23.1854C2.90592 23.2987 2.90592 23.3555 3.15323 23.4688C3.32338 23.5468 3.46237 23.8799 3.46237 24.2089C3.46237 24.5379 3.73564 25.0754 4.06951 25.4035C4.55449 25.8802 4.92868 26 5.93252 26C7.03603 26 7.29273 25.8977 8.0458 25.1575C8.51742 24.6944 8.90323 24.1477 8.90323 23.9426C8.90323 23.7377 9.01452 23.5701 9.15054 23.5701C9.28656 23.5701 9.39785 23.3514 9.39785 23.0841C9.39785 22.8168 9.28656 22.5981 9.15054 22.5981C9.01452 22.5981 8.90323 22.2701 8.90323 21.8692C8.90323 21.4682 8.79194 21.1402 8.65592 21.1402C8.51989 21.1402 8.4086 20.9215 8.4086 20.6542C8.4086 20.3502 8.24365 20.1682 7.96864 20.1682C7.72652 20.1682 7.36816 19.9495 7.17204 19.6822C6.8038 19.1802 5.93549 19.0096 5.93549 19.4393ZM19.7849 19.4393C19.7849 19.5729 19.6101 19.6822 19.3964 19.6822C18.8966 19.6822 18.3011 20.2674 18.3011 20.7584C18.3011 20.9684 18.1898 21.1402 18.0538 21.1402C17.9106 21.1402 17.8065 21.9153 17.8065 22.9799C17.8065 24.8718 18.0839 25.514 18.9018 25.514C19.1155 25.514 19.2903 25.6234 19.2903 25.757C19.2903 25.8921 19.9499 26 20.7742 26C22.0318 26 22.2581 25.9341 22.2581 25.5677C22.2581 25.3298 22.4806 24.9777 22.7527 24.785C23.0369 24.5839 23.2473 24.156 23.2473 23.7798C23.2473 23.4194 23.3866 23.0608 23.5565 22.9828C23.8038 22.8696 23.8038 22.8127 23.5565 22.6995C23.3866 22.6215 23.2473 22.2387 23.2473 21.849C23.2473 21.4592 23.136 21.1402 23 21.1402C22.864 21.1402 22.7527 20.9684 22.7527 20.7584C22.7527 20.2674 22.1572 19.6822 21.6574 19.6822C21.4437 19.6822 21.2688 19.5729 21.2688 19.4393C21.2688 19.3056 20.9349 19.1963 20.5269 19.1963C20.1188 19.1963 19.7849 19.3056 19.7849 19.4393ZM39.2165 20.0295C39.4109 20.2202 39.5699 20.8294 39.5699 21.3832C39.5699 22.5867 39.1359 23.0841 38.086 23.0841C37.6584 23.0841 37.1497 22.9279 36.9556 22.7369C36.5539 22.3425 36.474 21.1402 36.8495 21.1402C36.9855 21.1402 37.0968 20.8121 37.0968 20.4112C37.0968 19.7374 37.1635 19.6822 37.9799 19.6822C38.4659 19.6822 39.0223 19.8385 39.2165 20.0295ZM47.6251 20.0295C47.8284 20.229 47.9785 20.8486 47.9785 21.4874C47.9785 22.42 47.9026 22.5981 47.5044 22.5981C47.2437 22.5981 46.9655 22.7349 46.8861 22.9019C46.7709 23.1449 46.713 23.1449 46.5978 22.9019C46.5184 22.7349 46.2401 22.5981 45.9795 22.5981C45.677 22.5981 45.5054 22.4295 45.5054 22.1323C45.5054 21.8762 45.3664 21.6028 45.1962 21.5248C44.9489 21.4116 44.9489 21.3547 45.1962 21.2415C45.3664 21.1635 45.5054 20.9402 45.5054 20.7451C45.5054 19.8113 46.9178 19.3345 47.6251 20.0295ZM21.41 21.4874C21.6044 21.6782 21.7634 22.2249 21.7634 22.7024C21.7634 23.408 21.6712 23.5701 21.2688 23.5701C20.9968 23.5701 20.7742 23.6794 20.7742 23.8131C20.7742 24.1739 20.0488 24.1071 19.6437 23.7089C19.208 23.2809 19.1818 21.97 19.5995 21.5037C20.0016 21.0549 20.9614 21.0464 21.41 21.4874ZM7.41936 22.7369C7.41936 23.3757 7.26924 23.9953 7.06595 24.1948C6.66085 24.5931 5.93549 24.6599 5.93549 24.2991C5.93549 24.1654 5.71291 24.0561 5.44086 24.0561C5.01227 24.0561 4.94624 23.894 4.94624 22.8411V21.6262H6.1828H7.41936V22.7369Z" fill="black"/>
</svg>
