<svg width="51" height="21" viewBox="0 0 51 21" fill="none" xmlns="http://www.w3.org/2000/svg">
<path fill-rule="evenodd" clip-rule="evenodd" d="M8.42411 0.456522C8.24356 0.707609 7.96101 0.913043 7.79594 0.913043C7.63087 0.913043 6.58173 1.8375 5.46429 2.96739C4.34684 4.09728 3.32433 5.02174 3.19205 5.02174C3.05977 5.02174 2.28726 5.68758 1.47558 6.5011L0 7.98069V11.6534C0 15.7598 0.0739922 15.9783 1.46374 15.9783C2.09145 15.9783 2.27679 15.8856 2.27679 15.5722C2.27679 15.3487 2.4817 15.018 2.73214 14.837C2.98259 14.6559 3.1875 14.3738 3.1875 14.2099C3.1875 13.7943 5.1485 11.8696 5.57221 11.8696C5.76323 11.8696 5.91964 11.7668 5.91964 11.6413C5.91964 11.5059 6.75454 11.413 7.96875 11.413C9.18296 11.413 10.0179 11.5059 10.0179 11.6413C10.0179 11.7668 10.2767 11.8696 10.593 11.8696C11.2362 11.8696 13.2054 13.6717 13.2054 14.2604C13.2054 14.4519 13.3078 14.6087 13.433 14.6087C13.5583 14.6087 13.6607 14.9168 13.6607 15.2935V15.9783H25.5H37.3393V15.0652C37.3393 14.563 37.4417 14.1522 37.567 14.1522C37.6922 14.1522 37.7946 13.9954 37.7946 13.8038C37.7946 13.2152 39.7638 11.413 40.407 11.413C40.7233 11.413 40.9821 11.3103 40.9821 11.1848C40.9821 11.0494 41.817 10.9565 43.0312 10.9565C44.2455 10.9565 45.0804 11.0494 45.0804 11.1848C45.0804 11.3103 45.2853 11.413 45.5357 11.413C45.7862 11.413 45.9911 11.5158 45.9911 11.6413C45.9911 11.7668 46.1482 11.8696 46.3401 11.8696C46.7663 11.8696 48.2679 13.3357 48.2679 13.7518C48.2679 13.9166 48.4728 14.1994 48.7232 14.3804C48.9737 14.5614 49.1786 14.8922 49.1786 15.1157C49.1786 15.4373 49.368 15.5217 50.0893 15.5217H51V11.7392C51 8.76522 50.9306 7.88687 50.6746 7.63053C50.4133 7.36826 49.4033 7.30435 45.5296 7.30435H40.7094L40.0714 6.61956C39.7206 6.24293 39.3158 5.93478 39.1723 5.93478C39.0287 5.93478 38.2038 5.21576 37.3393 4.33696C36.4748 3.45815 35.6089 2.73913 35.4149 2.73913C35.2144 2.73913 35.0625 2.5426 35.0625 2.28261C35.0625 1.97834 34.9106 1.82609 34.6071 1.82609C34.3483 1.82609 34.1518 1.67384 34.1518 1.47342C34.1518 1.2794 33.9002 0.868533 33.5928 0.560381L33.0341 0H20.8931C9.01356 0 8.74536 0.00981521 8.42411 0.456522ZM17.8889 2.15227C18.1257 2.38943 18.2143 3.07399 18.2143 4.66314V6.84783H11.937C4.04493 6.84783 4.22526 6.9421 6.93122 4.22945C7.99926 3.15867 9.02814 2.28261 9.21779 2.28261C9.40745 2.28261 9.5625 2.17989 9.5625 2.05435C9.5625 1.91077 11.0479 1.82609 13.563 1.82609C16.7269 1.82609 17.6319 1.89434 17.8889 2.15227ZM31.875 2.05435C31.875 2.17989 32.036 2.28261 32.2327 2.28261C32.648 2.28261 33.2411 2.81765 33.2411 3.192C33.2411 3.33352 33.8558 4.05414 34.6071 4.79348C35.3585 5.53281 35.9732 6.29749 35.9732 6.49288C35.9732 6.8072 35.062 6.84783 28.0045 6.84783H20.0357V4.33696V1.82609H25.9554C29.7501 1.82609 31.875 1.90803 31.875 2.05435ZM42.3482 11.6413C42.3482 11.7668 41.9609 11.8696 41.4878 11.8696C40.8886 11.8696 40.5277 12.0081 40.2991 12.3261C40.1186 12.5772 39.7887 12.7826 39.5658 12.7826C39.3126 12.7826 39.1607 12.9536 39.1607 13.2391C39.1607 13.4902 39.0583 13.6957 38.933 13.6957C38.8078 13.6957 38.7054 13.9011 38.7054 14.1522C38.7054 14.4033 38.6029 14.6087 38.4777 14.6087C38.3461 14.6087 38.25 15.3341 38.25 16.3282C38.25 17.986 38.2785 18.0762 39.0394 18.8391C39.4733 19.2743 39.9856 19.6304 40.1778 19.6304C40.3697 19.6304 40.5268 19.7332 40.5268 19.8587C40.5268 19.9842 40.8342 20.087 41.2098 20.087C41.5855 20.087 41.8929 20.1897 41.8929 20.3152C41.8929 20.4408 42.2002 20.5435 42.5759 20.5435C42.9516 20.5435 43.2589 20.4408 43.2589 20.3152C43.2589 20.1897 43.7487 20.087 44.347 20.087C45.1739 20.087 45.5139 19.9774 45.7634 19.6304C45.9439 19.3793 46.2274 19.1739 46.3932 19.1739C46.8087 19.1739 47.8125 18.1319 47.8125 17.7005C47.8125 17.5065 47.915 17.3478 48.0402 17.3478C48.1654 17.3478 48.2679 16.8342 48.2679 16.2065C48.2679 15.5788 48.1654 15.0652 48.0402 15.0652C47.915 15.0652 47.8125 14.9084 47.8125 14.7169C47.8125 14.2638 45.8797 12.3261 45.4278 12.3261C45.2368 12.3261 45.0804 12.2234 45.0804 12.0978C45.0804 11.9723 44.773 11.8696 44.3973 11.8696C44.0217 11.8696 43.7143 11.7668 43.7143 11.6413C43.7143 11.5158 43.4069 11.413 43.0312 11.413C42.6556 11.413 42.3482 11.5158 42.3482 11.6413ZM6.83036 12.0978C6.83036 12.2234 6.57149 12.3261 6.25524 12.3261C5.61205 12.3261 3.64286 14.1282 3.64286 14.7169C3.64286 14.9084 3.5404 15.0652 3.41518 15.0652C3.28996 15.0652 3.1875 15.3649 3.1875 15.7311C3.1875 16.0972 3.05954 16.4567 2.9029 16.53C2.67522 16.6363 2.67522 16.6898 2.9029 16.7961C3.05954 16.8694 3.1875 17.1262 3.1875 17.3668C3.1875 17.6074 3.28996 17.8043 3.41518 17.8043C3.5404 17.8043 3.64286 18.0684 3.64286 18.3912C3.64286 19.0274 4.10914 19.6304 4.60093 19.6304C4.7701 19.6304 5.05606 19.8359 5.23661 20.087C5.48614 20.4339 5.82607 20.5435 6.653 20.5435C7.25134 20.5435 7.74107 20.6462 7.74107 20.7717C7.74107 20.8973 8.04844 21 8.42411 21C8.79978 21 9.10714 20.8973 9.10714 20.7717C9.10714 20.6462 9.46847 20.5435 9.90994 20.5435C10.5572 20.5435 10.9104 20.3456 11.7314 19.5222C12.2917 18.9607 12.75 18.3444 12.75 18.1527C12.75 17.9612 12.8525 17.8043 12.9777 17.8043C13.1043 17.8043 13.2054 17.1956 13.2054 16.4348C13.2054 15.674 13.1043 15.0652 12.9777 15.0652C12.8525 15.0652 12.75 14.9077 12.75 14.7153C12.75 14.5226 12.3948 14.0091 11.9606 13.574C11.5267 13.1387 11.0144 12.7826 10.8222 12.7826C10.6303 12.7826 10.4732 12.6799 10.4732 12.5543C10.4732 12.4288 10.1658 12.3261 9.79018 12.3261C9.41451 12.3261 9.10714 12.2234 9.10714 12.0978C9.10714 11.9723 8.59487 11.8696 7.96875 11.8696C7.34263 11.8696 6.83036 11.9723 6.83036 12.0978ZM44.7463 14.9436C45.5068 15.7057 45.7814 16.4348 45.308 16.4348C45.1828 16.4348 45.0804 16.5934 45.0804 16.7874C45.0804 16.9815 44.8288 17.3923 44.5214 17.7005C44.092 18.1312 43.7229 18.2609 42.9277 18.2609C42.3585 18.2609 41.8929 18.1582 41.8929 18.0326C41.8929 17.9071 41.6879 17.8043 41.4375 17.8043C41.134 17.8043 40.9821 17.6521 40.9821 17.3478C40.9821 17.0967 40.8797 16.8913 40.7545 16.8913C40.6292 16.8913 40.5268 16.5832 40.5268 16.2065C40.5268 15.8299 40.6292 15.5217 40.7545 15.5217C40.8797 15.5217 40.9821 15.3163 40.9821 15.0652C40.9821 14.7609 41.134 14.6087 41.4375 14.6087C41.6879 14.6087 41.8929 14.506 41.8929 14.3804C41.8929 14.2549 42.3573 14.1522 42.9249 14.1522C43.7992 14.1522 44.0779 14.2734 44.7463 14.9436ZM9.91427 15.1691C10.8792 16.1362 10.5702 18.2609 9.46483 18.2609C9.26812 18.2609 9.10714 18.3636 9.10714 18.4891C9.10714 18.6147 8.64154 18.7174 8.07234 18.7174C6.68168 18.7174 5.91964 17.9908 5.91964 16.6653C5.91964 15.2695 6.60655 14.6404 8.14976 14.6226C9.13743 14.6112 9.45663 14.71 9.91427 15.1691Z" fill="black"/>
</svg>
