<svg width="86" height="28" viewBox="0 0 86 28" fill="none" xmlns="http://www.w3.org/2000/svg">
<path fill-rule="evenodd" clip-rule="evenodd" d="M0 8.88696V17.7739H33.7684H67.5367V8.88696V0H33.7684H0V8.88696ZM69.298 5.72076C69.0757 5.97373 68.9943 7.43364 68.9943 11.1693C68.9943 15.0138 68.9195 16.3074 68.6907 16.4146C68.4477 16.528 68.4477 16.585 68.6907 16.6985C68.8578 16.7766 68.9943 17.1131 68.9943 17.4464C68.9943 18.7868 69.4185 18.7478 54.7997 18.7478H41.2994V21.3153C41.2994 23.717 41.3381 23.9217 41.8959 24.4805C42.6422 25.2287 43.7288 25.2942 43.7288 24.5913C43.7288 24.3235 43.8381 24.1043 43.9718 24.1043C44.1054 24.1043 44.2147 23.7757 44.2147 23.3739C44.2147 22.9722 44.324 22.6435 44.4576 22.6435C44.5912 22.6435 44.7006 22.4243 44.7006 22.1565C44.7006 21.832 44.8626 21.6696 45.1864 21.6696C45.4537 21.6696 45.6723 21.56 45.6723 21.4261C45.6723 21.2922 45.891 21.1826 46.1582 21.1826C46.4254 21.1826 46.6441 21.073 46.6441 20.9391C46.6441 20.7853 48.3446 20.6957 51.2599 20.6957C54.1751 20.6957 55.8757 20.7853 55.8757 20.9391C55.8757 21.073 56.0475 21.1826 56.2574 21.1826C56.4675 21.1826 56.7955 21.3392 56.9862 21.5305C57.1771 21.7217 57.3333 22.0504 57.3333 22.261C57.3333 22.4713 57.4427 22.6435 57.5763 22.6435C57.7099 22.6435 57.8192 22.8626 57.8192 23.1304C57.8192 23.3983 57.9285 23.6174 58.0621 23.6174C58.1958 23.6174 58.3051 23.7895 58.3051 23.9999C58.3051 24.5407 58.9073 25.0783 59.5135 25.0783C60.1108 25.0783 61.2203 24.0566 61.2203 23.5066C61.2203 23.2996 61.3297 23.1304 61.4633 23.1304C61.5969 23.1304 61.7062 22.5826 61.7062 21.913V20.6957H68.5085H75.3107V22.2955C75.3107 24.1353 75.7468 24.9193 76.404 24.2609C76.6044 24.06 76.7684 23.7235 76.7684 23.5129C76.7684 23.3026 76.8777 23.1304 77.0113 23.1304C77.1449 23.1304 77.2542 22.9612 77.2542 22.7543C77.2542 22.5473 77.5227 22.109 77.8507 21.7804C78.3054 21.3243 78.7038 21.1826 79.5308 21.1826C80.1605 21.1826 80.6743 21.055 80.7567 20.8783C80.8699 20.6348 80.9267 20.6348 81.0399 20.8783C81.1179 21.0458 81.3912 21.1826 81.6473 21.1826C81.9036 21.1826 82.113 21.2922 82.113 21.4261C82.113 21.56 82.3316 21.6696 82.5989 21.6696C82.9028 21.6696 83.0847 21.832 83.0847 22.1027C83.0847 22.3411 83.3034 22.6939 83.5706 22.887C83.8379 23.08 84.0565 23.4328 84.0565 23.6712C84.0565 23.9741 84.2443 24.1043 84.6811 24.1043C85.9359 24.1043 86 23.8265 86 18.3999C86 15.2232 85.9111 13.3913 85.7571 13.3913C85.6234 13.3913 85.5141 13.1174 85.5141 12.7826C85.5141 12.4478 85.4048 12.1739 85.2712 12.1739C85.1376 12.1739 85.0282 11.8452 85.0282 11.4435C85.0282 11.0417 84.9189 10.713 84.7853 10.713C84.6517 10.713 84.5424 10.2748 84.5424 9.73913C84.5424 9.20348 84.4331 8.76522 84.2994 8.76522C84.1658 8.76522 84.0565 8.32696 84.0565 7.7913C84.0565 7.25565 83.9472 6.81739 83.8136 6.81739C83.6799 6.81739 83.5706 6.64526 83.5706 6.43489C83.5706 5.4118 83.1882 5.35604 76.239 5.36578C70.8191 5.37333 69.5461 5.43832 69.298 5.72076ZM73.8531 7.54783C73.8531 7.68174 73.3065 7.7913 72.6384 7.7913C71.9703 7.7913 71.4237 7.68174 71.4237 7.54783C71.4237 7.41391 71.9703 7.30435 72.6384 7.30435C73.3065 7.30435 73.8531 7.41391 73.8531 7.54783ZM82.2517 7.65228C82.4427 7.84341 82.5989 8.28167 82.5989 8.62619C82.5989 8.97047 82.7082 9.25217 82.8418 9.25217C82.9754 9.25217 83.0847 9.58087 83.0847 9.98261C83.0847 10.3843 83.1941 10.713 83.3277 10.713C83.4613 10.713 83.5706 11.2609 83.5706 11.9304V13.1478H80.4124H77.2542V10.2261V7.30435H79.5794C81.2707 7.30435 81.9993 7.39906 82.2517 7.65228ZM74.0506 10.1457C74.3455 10.4413 74.374 10.5796 74.1546 10.6529C73.7729 10.7805 73.7154 18.2609 74.096 18.2609C74.2297 18.2609 74.339 18.3704 74.339 18.5043C74.339 18.6434 73.6102 18.7478 72.6384 18.7478H70.9379V14.5985C70.9379 11.6256 71.0238 10.351 71.2415 10.1034C71.6735 9.61154 73.5458 9.63979 74.0506 10.1457ZM3.40113 21.3216C3.40113 23.2278 3.49126 23.986 3.74828 24.2434C4.25384 24.7503 4.85876 24.6743 4.85876 24.1043C4.85876 23.8365 4.96808 23.6174 5.10169 23.6174C5.23531 23.6174 5.34463 23.3386 5.34463 22.9977C5.34463 22.6569 5.61308 22.109 5.94104 21.7804C6.52288 21.197 6.62807 21.1826 10.3139 21.1826C12.6697 21.1826 14.0904 21.2742 14.0904 21.4261C14.0904 21.56 13.9215 21.6696 13.7151 21.6696C13.5086 21.6696 13.0713 21.9386 12.7433 22.2673C12.2222 22.7893 12.1469 23.083 12.1469 24.5913C12.1469 26.0997 12.2222 26.3933 12.7433 26.9153C13.0713 27.244 13.6179 27.513 13.958 27.513C14.2981 27.513 14.5763 27.6226 14.5763 27.7565C14.5763 27.8904 14.9042 28 15.3051 28C15.7059 28 16.0339 27.8904 16.0339 27.7565C16.0339 27.6226 16.2027 27.513 16.4092 27.513C16.6157 27.513 17.053 27.244 17.381 26.9153C17.8929 26.4025 17.9774 26.0916 17.9774 24.724C17.9774 23.8239 17.8717 23.1304 17.7345 23.1304C17.6008 23.1304 17.4915 22.9113 17.4915 22.6435C17.4915 22.3189 17.3295 22.1565 17.0056 22.1565C16.7384 22.1565 16.5198 22.047 16.5198 21.913C16.5198 21.7791 16.1918 21.6696 15.791 21.6696C15.3901 21.6696 15.0621 21.56 15.0621 21.4261C15.0621 21.2922 15.4484 21.1826 15.9204 21.1826C16.5761 21.1826 16.978 21.382 17.621 22.0267C18.0843 22.4908 18.4633 22.9917 18.4633 23.1397C18.4633 23.4197 19.0543 24.1043 19.2963 24.1043C19.3726 24.1043 19.435 22.8991 19.435 21.4261V18.7478H11.4181H3.40113V21.3216ZM47.1299 21.4261C47.1299 21.56 46.9113 21.6696 46.6441 21.6696C46.3768 21.6696 46.1582 21.7791 46.1582 21.913C46.1582 22.047 45.9395 22.1565 45.6723 22.1565C45.3485 22.1565 45.1864 22.3189 45.1864 22.6435C45.1864 22.9113 45.0771 23.1304 44.9435 23.1304C44.8048 23.1304 44.7006 23.8609 44.7006 24.8348C44.7006 25.8087 44.8048 26.5391 44.9435 26.5391C45.0771 26.5391 45.1864 26.7583 45.1864 27.0261C45.1864 27.3506 45.3485 27.513 45.6723 27.513C45.9395 27.513 46.1582 27.6226 46.1582 27.7565C46.1582 27.8904 46.7048 28 47.3729 28C48.041 28 48.5876 27.8904 48.5876 27.7565C48.5876 27.6226 48.9155 27.513 49.3164 27.513C49.8832 27.513 50.0452 27.4049 50.0452 27.0261C50.0452 26.7583 50.1545 26.5391 50.2881 26.5391C50.4217 26.5391 50.5311 26.32 50.5311 26.0522C50.5311 25.7843 50.5928 25.5652 50.6683 25.5652C50.7439 25.5652 51.3379 26.113 51.9887 26.7826C53.1286 27.9557 53.2211 28 54.5238 28C55.2674 28 55.8757 27.8904 55.8757 27.7565C55.8757 27.6226 56.0943 27.513 56.3616 27.513C56.6854 27.513 56.8475 27.3506 56.8475 27.0261C56.8475 26.7583 56.9568 26.5391 57.0904 26.5391C57.224 26.5391 57.3333 26.32 57.3333 26.0522C57.3333 25.7843 57.4427 25.5652 57.5763 25.5652C57.7099 25.5652 57.8192 25.2365 57.8192 24.8348C57.8192 24.433 57.7099 24.1043 57.5763 24.1043C57.4427 24.1043 57.3333 23.8268 57.3333 23.4876C57.3333 23.1083 57.0088 22.5456 56.4911 22.0267C55.7331 21.2668 55.5147 21.1826 54.3046 21.1826C53.5654 21.1826 52.9604 21.2922 52.9604 21.4261C52.9604 21.56 52.7887 21.6696 52.5788 21.6696C52.0052 21.6696 51.5028 22.2868 51.5028 22.9914C51.5028 23.455 51.3767 23.6174 51.0169 23.6174C50.6584 23.6174 50.5311 23.455 50.5311 22.9977C50.5311 21.9778 49.5246 21.1826 48.2341 21.1826C47.6267 21.1826 47.1299 21.2922 47.1299 21.4261ZM64.4393 21.5468C64.2537 21.7582 64.1356 22.6065 64.1356 23.7289V25.5652H65.0872C65.6107 25.5652 66.1024 25.4284 66.1804 25.2609C66.2936 25.0174 66.3505 25.0174 66.4637 25.2609C66.6413 25.6422 72.3955 25.7013 72.3955 25.3217C72.3955 25.1878 72.6141 25.0783 72.8814 25.0783C73.1486 25.0783 73.3672 25.1878 73.3672 25.3217C73.3672 25.7064 74.0907 25.6054 74.5365 25.1586C74.8314 24.863 74.8598 24.7247 74.6405 24.6514C74.4391 24.5842 74.339 23.9911 74.339 22.8667C74.339 21.345 74.2921 21.1826 73.8531 21.1826C73.5859 21.1826 73.3672 21.2922 73.3672 21.4261C73.3672 21.56 73.1486 21.6696 72.8814 21.6696C72.6141 21.6696 72.3955 21.56 72.3955 21.4261C72.3955 21.279 71.3725 21.1826 69.8123 21.1826C67.4706 21.1826 67.1869 21.2316 66.7756 21.7068L66.322 22.231L65.8685 21.7068C65.3471 21.1047 64.8744 21.0516 64.4393 21.5468ZM6.37712 22.2844C6.07636 22.6062 5.83051 23.0379 5.83051 23.2434C5.83051 23.4491 5.72119 23.6174 5.58757 23.6174C5.45395 23.6174 5.34463 24.0557 5.34463 24.5913C5.34463 25.127 5.45395 25.5652 5.58757 25.5652C5.72119 25.5652 5.83051 25.8469 5.83051 26.1912C5.83051 26.8958 6.3329 27.513 6.90648 27.513C7.11637 27.513 7.28814 27.6226 7.28814 27.7565C7.28814 27.8904 7.83475 28 8.50282 28C9.1709 28 9.71751 27.8904 9.71751 27.7565C9.71751 27.6226 9.88927 27.513 10.0992 27.513C10.6727 27.513 11.1751 26.8958 11.1751 26.1912C11.1751 25.8469 11.2845 25.5652 11.4181 25.5652C11.5517 25.5652 11.661 25.2365 11.661 24.8348C11.661 24.433 11.5517 24.1043 11.4181 24.1043C11.2845 24.1043 11.1751 23.8256 11.1751 23.4847C11.1751 23.1438 10.9067 22.596 10.5787 22.2673C10.0676 21.755 9.76416 21.6717 8.45303 21.6844C7.16278 21.6971 6.83821 21.7908 6.37712 22.2844ZM78.0438 22.0338C77.8769 22.224 77.7401 22.6581 77.7401 22.9985C77.7401 23.3389 77.6308 23.6174 77.4972 23.6174C77.3636 23.6174 77.2542 24.0557 77.2542 24.5913C77.2542 25.127 77.3636 25.5652 77.4972 25.5652C77.6308 25.5652 77.7401 25.7344 77.7401 25.9414C77.7401 26.1483 78.0086 26.5866 78.3365 26.9153C78.6645 27.244 79.1018 27.513 79.3083 27.513C79.5148 27.513 79.6836 27.6226 79.6836 27.7565C79.6836 27.8904 80.0699 28 80.5419 28C81.1976 28 81.5994 27.8006 82.2425 27.1559C82.7058 26.6918 83.0847 26.144 83.0847 25.9385C83.0847 25.7332 83.1941 25.5652 83.3277 25.5652C83.4613 25.5652 83.5706 25.127 83.5706 24.5913C83.5706 24.0557 83.4613 23.6174 83.3277 23.6174C83.1941 23.6174 83.0847 23.4482 83.0847 23.2412C83.0847 23.0343 82.8163 22.596 82.4883 22.2673C81.9621 21.7397 81.6842 21.6705 80.1197 21.6788C78.9031 21.6852 78.2522 21.7964 78.0438 22.0338ZM15.6867 23.4784C15.8777 23.6695 16.0339 24.2173 16.0339 24.6958C16.0339 25.3904 15.9401 25.5652 15.5682 25.5652C15.3121 25.5652 15.0575 25.7011 15.0021 25.8674C14.8185 26.4193 14.0904 25.4057 14.0904 24.5984C14.0904 23.3423 14.9497 22.7394 15.6867 23.4784ZM80.6554 23.3739C80.6554 23.5078 80.874 23.6174 81.1412 23.6174C81.5365 23.6174 81.6271 23.7798 81.6271 24.4868C81.6271 25.4724 81.1772 26.0522 80.4124 26.0522C80.126 26.0522 79.7356 25.8956 79.5449 25.7042C79.1168 25.2755 79.0911 23.9619 79.5014 23.4947C79.851 23.0966 80.6554 23.0126 80.6554 23.3739ZM9.23164 24.0841C9.23164 24.3408 9.3672 24.5959 9.53312 24.6514C10.1259 24.8494 9.04701 25.5652 8.15567 25.5652C7.38847 25.5652 7.28814 25.4936 7.28814 24.9463C7.28814 24.1175 7.75166 23.6378 8.56356 23.6266C9.06328 23.6198 9.23164 23.735 9.23164 24.0841ZM48.5876 24.5913C48.5876 25.4751 48.5298 25.5652 47.963 25.5652C47.3165 25.5652 46.6441 25.0722 46.6441 24.5984C46.6441 24.0953 47.247 23.6359 47.9195 23.6266C48.5385 23.6181 48.5876 23.689 48.5876 24.5913ZM55.3898 24.2434C55.3898 24.8952 54.8974 25.5652 54.4181 25.5652C53.9388 25.5652 53.4463 24.8952 53.4463 24.2434C53.4463 23.6753 53.5362 23.6174 54.4181 23.6174C55.2999 23.6174 55.3898 23.6753 55.3898 24.2434Z" fill="black"/>
</svg>
