<svg width="43" height="28" viewBox="0 0 43 28" fill="none" xmlns="http://www.w3.org/2000/svg">
<path fill-rule="evenodd" clip-rule="evenodd" d="M26.5588 3.08462V5.2029C26.5588 5.76411 26.1612 6.24663 25.6103 6.35385C25.0886 6.45539 24.6618 6.65969 24.6618 6.80769C24.6618 6.95569 24.3772 7.07692 24.0294 7.07692C23.6816 7.07692 23.3971 7.21538 23.3971 7.38462C23.3971 7.58308 19.9684 7.69231 13.7432 7.69231H5.61847C4.63783 7.69231 3.69593 8.07506 2.99325 8.75908C2.3903 9.34554 1.89706 10.0378 1.89706 10.2975C1.89706 10.5569 1.75478 10.7692 1.58088 10.7692C1.10725 10.7692 1.2002 11.6732 1.72632 12.1855C2.06684 12.5169 3.06217 12.6446 5.52044 12.6732L7.67056 12.698C8.32577 12.7056 8.85294 13.2389 8.85294 13.8942C8.85294 14.5446 8.71066 15.0769 8.53677 15.0769C8.36287 15.0769 8.22059 15.3538 8.22059 15.6923C8.22059 16.0308 8.07831 16.3077 7.90441 16.3077C7.73051 16.3077 7.58824 16.7231 7.58824 17.2308C7.58824 17.7385 7.44596 18.1538 7.27206 18.1538C7.09816 18.1538 6.95588 18.4003 6.95588 18.7012C6.95588 19.0025 6.67132 19.4483 6.32353 19.6923C5.58652 20.2092 5.49483 21.3911 6.14299 22.0218C6.40257 22.2748 7.20882 22.4615 8.04005 22.4615C9.2744 22.4615 9.48529 22.3717 9.48529 21.8462C9.48529 21.5077 9.62757 21.2308 9.80147 21.2308C9.97537 21.2308 10.1176 20.9538 10.1176 20.6154C10.1176 20.2769 9.97537 20 9.80147 20C9.62757 20 9.48529 19.7231 9.48529 19.3846C9.48529 19.0462 9.62757 18.7692 9.80147 18.7692C9.97537 18.7692 10.1176 18.4923 10.1176 18.1538C10.1176 17.8154 10.2599 17.5385 10.4338 17.5385C10.6077 17.5385 10.75 17.1231 10.75 16.6154C10.75 16.1077 10.8923 15.6923 11.0662 15.6923C11.2401 15.6923 11.3824 15.4748 11.3824 15.2089C11.3824 14.6412 12.1254 13.8462 12.6556 13.8462C12.8592 13.8462 13.4245 14.2615 13.9118 14.7692C14.7458 15.6382 14.9387 15.6923 17.2003 15.6923C18.5912 15.6923 19.6029 15.5628 19.6029 15.3846C19.6029 15.2154 19.8875 15.0769 20.2353 15.0769C20.5831 15.0769 20.8676 14.9385 20.8676 14.7692C20.8676 14.6 21.4368 14.4615 22.1324 14.4615C23.3269 14.4615 23.3971 14.5129 23.3971 15.3846C23.3971 15.8944 22.9838 16.3077 22.474 16.3077H21.1838C19.9191 16.3077 18.9706 16.4397 18.9706 16.6154C18.9706 16.7846 18.2592 16.9231 17.3897 16.9231C16.0197 16.9231 15.8088 17.0052 15.8088 17.5385C15.8088 17.8769 15.9511 18.1538 16.125 18.1538C16.3147 18.1538 16.4412 19.3846 16.4412 21.2308V22.7268C16.4412 23.5999 17.149 24.3077 18.0221 24.3077C18.8915 24.3077 19.6029 24.4462 19.6029 24.6154C19.6029 24.7846 20.3143 24.9231 21.1838 24.9231C22.0533 24.9231 22.7647 24.7846 22.7647 24.6154C22.7647 24.4462 23.4761 24.3077 24.3456 24.3077C25.7156 24.3077 25.9265 24.2255 25.9265 23.6923C25.9265 23.3538 26.0687 23.0769 26.2426 23.0769C26.4165 23.0769 26.5588 22.3846 26.5588 21.5385C26.5588 20.6923 26.7011 20 26.875 20C27.0489 20 27.1912 19.3077 27.1912 18.4615C27.1912 17.6154 27.3335 16.9231 27.5074 16.9231C27.6812 16.9231 27.8235 16.3692 27.8235 15.6923C27.8235 15.0154 27.9658 14.4615 28.1397 14.4615C28.3136 14.4615 28.4559 13.9723 28.4559 13.3745C28.4559 12.544 28.7148 12.0351 29.5521 11.2206C30.1547 10.6338 30.8661 10.1538 31.1329 10.1538C31.3995 10.1538 31.6176 10.0154 31.6176 9.84615C31.6176 9.67046 32.5662 9.53846 33.8309 9.53846H34.5057C35.3553 9.53846 36.0441 8.84967 36.0441 8C36.0441 7.15385 35.9018 6.46154 35.7279 6.46154C35.554 6.46154 35.4118 6.25385 35.4118 6C35.4118 5.74615 35.2695 5.53846 35.0956 5.53846C34.9217 5.53846 34.7794 5.26154 34.7794 4.92308C34.7794 4.58462 34.6371 4.30769 34.4632 4.30769C34.2893 4.30769 34.1471 4.09385 34.1471 3.83231C34.1471 3.25077 32.753 1.84615 32.176 1.84615C31.9458 1.84615 31.5522 1.56923 31.3015 1.23077C31.0507 0.892308 30.5926 0.615385 30.2831 0.615385C29.9738 0.615385 29.7206 0.476923 29.7206 0.307692C29.7206 0.138462 29.0092 0 28.1397 0C27.2666 0 26.5588 0.707785 26.5588 1.58088V3.08462ZM36.4393 2.93538C35.874 3.51138 35.4118 4.13846 35.4118 4.32923C35.4118 4.87877 37.3142 6.46154 37.9747 6.46154C38.509 6.46154 38.5735 6.21354 38.5735 4.15385C38.5735 2.15323 38.4999 1.84892 38.0202 1.86738C37.7161 1.87908 37.0047 2.35969 36.4393 2.93538ZM30.7482 11.2295C30.2771 11.7502 30.2186 13.2308 30.6691 13.2308C30.843 13.2308 30.9853 13.5077 30.9853 13.8462C30.9853 14.1846 31.1276 14.4615 31.3015 14.4615C31.4754 14.4615 31.6176 14.8769 31.6176 15.3846C31.6176 15.8923 31.7599 16.3077 31.9338 16.3077C32.1077 16.3077 32.25 16.5729 32.25 16.8975C32.25 17.2218 32.428 17.568 32.6452 17.6668C32.9614 17.8102 32.9614 17.8822 32.6452 18.0255C32.4157 18.1298 32.25 18.7806 32.25 19.5782C32.25 21.3532 33.2776 22.4615 34.9233 22.4615C35.5398 22.4615 36.0441 22.3231 36.0441 22.1538C36.0441 21.9846 36.3287 21.8462 36.6765 21.8462C37.0888 21.8462 37.3088 21.6409 37.3088 21.2563C37.3088 20.932 37.4868 20.5858 37.704 20.4871C38.0202 20.3437 38.0202 20.2717 37.704 20.1283C37.4868 20.0295 37.3088 19.6034 37.3088 19.1809C37.3088 18.6877 36.857 17.9908 36.0441 17.2308C35.3485 16.5803 34.7794 15.8298 34.7794 15.5625C34.7794 15.2954 34.6371 15.0769 34.4632 15.0769C34.2893 15.0769 34.1471 14.8 34.1471 14.4615C34.1471 14.1231 34.0048 13.8462 33.8309 13.8462C33.657 13.8462 33.5147 13.4938 33.5147 13.0631C33.5147 12.236 32.2468 10.7612 31.5528 10.7809C31.3277 10.7874 30.9657 10.9892 30.7482 11.2295ZM34.5309 12.4723C34.1907 12.8474 34.3061 13.0982 35.2315 13.9991C35.8408 14.592 36.5573 15.0769 36.8241 15.0769C37.0907 15.0769 37.3088 15.2154 37.3088 15.3846C37.3088 15.5538 37.5286 15.6923 37.7973 15.6923C38.43 15.6923 39.8382 17.0628 39.8382 17.6785C39.8382 17.94 39.9805 18.1538 40.1544 18.1538C40.333 18.1538 40.4706 19.0302 40.4706 20.1677C40.4706 21.896 40.3606 22.2889 39.6944 22.9369C39.2675 23.3523 38.6984 23.6923 38.4297 23.6923C38.1609 23.6923 37.9412 23.8308 37.9412 24C37.9412 24.1692 37.6566 24.3077 37.3088 24.3077C36.961 24.3077 36.6765 24.4462 36.6765 24.6154C36.6765 24.7902 35.7513 24.9231 34.5331 24.9231C32.7524 24.9231 32.3126 24.8191 31.9338 24.3077C31.6831 23.9692 31.225 23.6923 30.9154 23.6923C30.5012 23.6923 30.3529 23.4489 30.3529 22.7692C30.3529 22.2615 30.2107 21.8462 30.0368 21.8462C29.8629 21.8462 29.7206 21.4308 29.7206 20.9231C29.7206 20.4154 29.8629 20 30.0368 20C30.2107 20 30.3529 19.4462 30.3529 18.7692C30.3529 18.0923 30.4952 17.5385 30.6691 17.5385C31.1639 17.5385 31.0394 15.3932 30.5151 14.8831C30.0991 14.4782 29.9536 14.5145 29.2504 15.1988C28.8135 15.624 28.4559 16.1862 28.4559 16.4477C28.4559 16.7092 28.3136 16.9231 28.1397 16.9231C27.9639 16.9231 27.8235 17.7437 27.8235 18.7692C27.8235 19.7948 27.6831 20.6154 27.5074 20.6154C27.3335 20.6154 27.1912 20.8923 27.1912 21.2308C27.1912 21.5692 27.3335 21.8462 27.5074 21.8462C27.6812 21.8462 27.8235 22.4 27.8235 23.0769C27.8235 23.7538 27.9658 24.3077 28.1397 24.3077C28.3136 24.3077 28.4559 24.5846 28.4559 24.9231C28.4559 25.308 28.6668 25.5385 29.0184 25.5385C29.3279 25.5385 29.786 25.8154 30.0368 26.1538C30.3046 26.5151 30.8553 26.7692 31.3713 26.7692C31.8545 26.7692 32.25 26.9077 32.25 27.0769C32.25 27.2594 33.4094 27.3846 35.0956 27.3846C36.7818 27.3846 37.9412 27.2594 37.9412 27.0769C37.9412 26.9077 38.2257 26.7692 38.5735 26.7692C38.9213 26.7692 39.2059 26.6308 39.2059 26.4615C39.2059 26.2923 39.4256 26.1538 39.6944 26.1538C40.292 26.1538 41.7353 24.7972 41.7353 24.2357C41.7353 24.0117 42.0199 23.6286 42.3676 23.3846C42.9175 22.9991 43 22.588 43 20.2397C43 18.644 42.8707 17.5385 42.6838 17.5385C42.5099 17.5385 42.3676 17.2615 42.3676 16.9231C42.3676 16.5846 42.2254 16.3077 42.0515 16.3077C41.8776 16.3077 41.7353 16.0963 41.7353 15.8382C41.7353 15.0446 39.0007 12.6154 38.1075 12.6154C37.6683 12.6154 37.3088 12.4769 37.3088 12.3077C37.3088 11.8305 34.9878 11.968 34.5309 12.4723ZM2.60846 15.2489C1.52176 16.3332 0.632353 17.4305 0.632353 17.6871C0.632353 17.9437 0.490074 18.1538 0.316176 18.1538C0.131846 18.1538 0 19.1794 0 20.6154C0 22.0514 0.131846 23.0769 0.316176 23.0769C0.490074 23.0769 0.632353 23.4277 0.632353 23.8563C0.632353 24.6843 2.49843 26.7692 3.23954 26.7692C3.46782 26.7692 3.85957 27.0462 4.11029 27.3846C4.51753 27.9345 4.92888 28 7.97429 28C10.0354 28 11.3824 27.8785 11.3824 27.6923C11.3824 27.5231 11.6669 27.3846 12.0147 27.3846C12.3625 27.3846 12.6471 27.2462 12.6471 27.0769C12.6471 26.9077 12.8668 26.7692 13.1356 26.7692C13.9039 26.7692 15.1765 25.3391 15.1765 24.4754C15.1765 24.0446 15.3187 23.6923 15.4926 23.6923C15.677 23.6923 15.8088 22.6668 15.8088 21.2308C15.8088 19.7948 15.677 18.7692 15.4926 18.7692C15.3187 18.7692 15.1765 18.4923 15.1765 18.1538C15.1765 17.8154 15.0342 17.5385 14.8603 17.5385C14.6864 17.5385 14.5441 17.3246 14.5441 17.0631C14.5441 16.8015 14.1865 16.2394 13.7496 15.8142C13.0464 15.1298 12.9009 15.0935 12.4849 15.4985C11.9606 16.0086 11.8361 18.1538 12.3309 18.1538C12.5048 18.1538 12.6471 18.4308 12.6471 18.7692C12.6471 19.1077 12.7893 19.3846 12.9632 19.3846C13.1419 19.3846 13.2794 20.2597 13.2794 21.3948C13.2794 23.2785 13.2102 23.4723 12.1832 24.4717C11.5806 25.0585 10.8692 25.5385 10.6023 25.5385C10.3358 25.5385 10.1176 25.6769 10.1176 25.8462C10.1176 26.0154 9.54853 26.1538 8.85294 26.1538C8.15735 26.1538 7.58824 26.0154 7.58824 25.8462C7.58824 25.6769 7.08552 25.5385 6.47119 25.5385C5.61783 25.5385 5.09487 25.2865 4.25795 24.4717C3.655 23.8852 3.16176 23.1929 3.16176 22.9332C3.16176 22.6738 3.01949 22.4615 2.84559 22.4615C2.66979 22.4615 2.52941 21.6409 2.52941 20.6154C2.52941 19.5898 2.66979 18.7692 2.84559 18.7692C3.01949 18.7692 3.16176 18.5554 3.16176 18.2938C3.16176 17.7526 4.53903 16.3077 5.05503 16.3077C5.57546 16.3077 7.58824 14.2378 7.58824 13.7025C7.58824 13.3415 7.2357 13.2363 6.0864 13.2542C4.66835 13.2763 4.47453 13.3874 2.60846 15.2489Z" fill="black"/>
</svg>
